<?xml version="1.0" encoding="UTF-8"?>
<svg xmlns="http://www.w3.org/2000/svg" xmlns:xlink="http://www.w3.org/1999/xlink" viewBox="0 0 64 64" width="64px" height="64px">
<g id="surface194419">
<path style=" stroke:none;fill-rule:nonzero;fill:rgb(23.137255%,25.490198%,23.529412%);fill-opacity:1;" d="M 52.421875 11.40625 C 46.949219 5.980469 39.703125 3 32.003906 3 C 31.964844 3 31.921875 3 31.878906 3 C 24.132812 3.03125 16.859375 6.078125 11.40625 11.582031 C 5.953125 17.082031 2.96875 24.378906 3 32.121094 C 3.03125 39.867188 6.078125 47.140625 11.578125 52.59375 C 17.050781 58.019531 24.296875 61 31.996094 61 C 32.035156 61 32.078125 61 32.121094 61 C 39.867188 60.96875 47.140625 57.921875 52.59375 52.417969 C 58.046875 46.917969 61.03125 39.621094 61 31.878906 C 60.96875 24.132812 57.921875 16.859375 52.421875 11.40625 Z M 32.113281 59 C 30.8125 59.003906 29.527344 58.914062 28.261719 58.738281 L 28.261719 38.625 L 22.078125 38.625 L 22.078125 32.054688 L 28.261719 32.054688 L 28.261719 27.679688 C 28.261719 20.441406 31.789062 17.261719 37.808594 17.261719 C 40.6875 17.261719 42.210938 17.476562 42.933594 17.574219 L 42.933594 23.308594 L 38.828125 23.308594 C 36.277344 23.308594 35.382812 25.730469 35.382812 28.460938 L 35.382812 32.054688 L 42.871094 32.054688 L 41.855469 38.625 L 35.382812 38.625 L 35.382812 58.78125 C 34.308594 58.917969 33.21875 58.996094 32.113281 59 Z M 51.171875 51.011719 C 47.355469 54.859375 42.582031 57.417969 37.382812 58.464844 L 37.382812 40.625 L 41.855469 40.625 C 42.839844 40.625 43.679688 39.90625 43.832031 38.933594 L 44.832031 32.464844 C 44.859375 32.332031 44.871094 32.195312 44.871094 32.054688 C 44.871094 30.949219 43.980469 30.054688 42.875 30.054688 L 37.386719 30.054688 L 37.386719 28.464844 C 37.386719 27.285156 37.574219 25.3125 38.832031 25.3125 L 42.933594 25.3125 C 44.039062 25.3125 44.933594 24.414062 44.933594 23.3125 L 44.933594 17.574219 C 44.933594 16.574219 44.195312 15.726562 43.203125 15.59375 C 42.382812 15.480469 40.765625 15.265625 37.808594 15.265625 C 30.363281 15.265625 26.265625 19.675781 26.265625 27.683594 L 26.265625 30.054688 L 22.078125 30.054688 C 20.972656 30.054688 20.078125 30.949219 20.078125 32.054688 L 20.078125 38.628906 C 20.078125 39.730469 20.972656 40.628906 22.078125 40.628906 L 26.265625 40.628906 L 26.265625 58.382812 C 21.28125 57.308594 16.695312 54.847656 12.988281 51.175781 C 7.867188 46.09375 5.03125 39.324219 5 32.113281 C 4.96875 24.902344 7.75 18.109375 12.828125 12.988281 C 17.90625 7.867188 24.675781 5.03125 31.886719 5 C 31.925781 5 31.964844 5 32.003906 5 C 39.171875 5 45.917969 7.777344 51.011719 12.828125 C 56.132812 17.90625 58.96875 24.675781 59 31.886719 C 59.03125 39.097656 56.25 45.890625 51.171875 51.011719 Z M 52.835938 43.914062 C 52.832031 43.914062 52.832031 43.917969 52.832031 43.917969 C 52.554688 44.394531 51.949219 44.558594 51.46875 44.285156 L 49.734375 43.292969 C 49.253906 43.019531 49.085938 42.40625 49.359375 41.929688 C 49.363281 41.925781 49.363281 41.925781 49.363281 41.925781 C 49.640625 41.449219 50.246094 41.28125 50.726562 41.558594 L 52.464844 42.550781 C 52.941406 42.824219 53.109375 43.433594 52.835938 43.914062 Z M 55.058594 38.476562 C 55.035156 38.566406 55.003906 38.648438 54.957031 38.726562 C 54.738281 39.105469 54.285156 39.308594 53.839844 39.191406 L 51.902344 38.679688 C 51.367188 38.539062 51.050781 37.992188 51.191406 37.460938 C 51.335938 36.929688 51.878906 36.605469 52.414062 36.746094 L 54.347656 37.257812 C 54.882812 37.394531 55.199219 37.941406 55.058594 38.476562 Z M 44.992188 50.816406 C 45.179688 51.136719 45.167969 51.519531 44.996094 51.820312 C 44.910156 51.96875 44.789062 52.09375 44.632812 52.183594 C 44.15625 52.460938 43.542969 52.300781 43.265625 51.824219 L 42.257812 50.097656 C 41.980469 49.617188 42.140625 49.007812 42.617188 48.730469 C 43.09375 48.449219 43.707031 48.609375 43.988281 49.089844 Z M 55.804688 32.652344 C 55.804688 32.835938 55.753906 33.007812 55.667969 33.15625 C 55.496094 33.453125 55.175781 33.652344 54.804688 33.65625 L 52.804688 33.664062 C 52.253906 33.664062 51.804688 33.222656 51.800781 32.667969 C 51.800781 32.113281 52.242188 31.667969 52.796875 31.664062 L 54.800781 31.65625 C 55.351562 31.65625 55.800781 32.101562 55.804688 32.652344 Z M 49.273438 47.175781 C 49.601562 47.503906 49.65625 48.003906 49.433594 48.386719 C 49.390625 48.460938 49.339844 48.527344 49.277344 48.589844 C 48.890625 48.984375 48.257812 48.984375 47.863281 48.597656 L 46.445312 47.1875 C 46.050781 46.796875 46.058594 46.160156 46.4375 45.773438 C 46.828125 45.382812 47.460938 45.378906 47.851562 45.769531 Z M 27.160156 9.613281 C 27.25 9.992188 27.109375 10.378906 26.828125 10.613281 C 26.714844 10.710938 26.578125 10.78125 26.421875 10.820312 C 25.679688 10.996094 24.941406 11.21875 24.226562 11.476562 C 23.703125 11.664062 23.132812 11.394531 22.945312 10.875 C 22.757812 10.355469 23.027344 9.78125 23.546875 9.597656 C 24.332031 9.3125 25.140625 9.070312 25.953125 8.875 C 26.492188 8.746094 27.03125 9.074219 27.160156 9.613281 Z M 20.820312 11.894531 C 21.105469 12.367188 20.960938 12.972656 20.480469 13.269531 C 16.390625 15.75 13.238281 19.578125 11.613281 24.054688 C 11.550781 24.222656 11.449219 24.367188 11.320312 24.476562 C 11.054688 24.699219 10.679688 24.777344 10.335938 24.652344 C 9.816406 24.464844 9.546875 23.890625 9.734375 23.371094 C 11.515625 18.46875 14.964844 14.273438 19.445312 11.558594 C 19.917969 11.273438 20.535156 11.421875 20.820312 11.894531 Z M 20.820312 11.894531 "/>
</g>
</svg>
