<svg xmlns="http://www.w3.org/2000/svg" width="462.848" height="420" viewBox="0 0 860.131 571.148">
  <g id="notfound" transform="translate(-0.005)">
    <path id="Path_178" data-name="Path 178" d="M605.67,324.953c-7.669-12.685-16.757-26.228-30.99-30.37-16.482-4.8-33.413,4.732-47.775,14.134A1392.131,1392.131,0,0,0,403.013,400l.043.493,92.451-6.376c22.265-1.535,45.3-3.283,64.972-13.816,7.466-4,14.745-9.336,23.206-9.708,10.512-.462,19.677,6.879,26.88,14.549C653.172,430.515,665.5,499.9,713.3,539.76A1516.984,1516.984,0,0,0,605.67,324.953Z" transform="translate(-169.934 -164.426)" fill="#f2f2f2"/>
    <path id="Path_179" data-name="Path 179" d="M867.571,709.781c-4.712-5.95-6.637-7.343-11.285-13.348q-56.764-73.416-106.708-151.792-33.923-53.23-64.483-108.5-14.549-26.278-28.3-52.969-10.67-20.7-20.865-41.638c-1.944-3.988-3.832-7.994-5.711-12.009-4.428-9.442-8.773-18.931-13.439-28.245-5.317-10.616-11.789-21.745-21.553-28.877a29.4,29.4,0,0,0-15.319-5.895c-7.948-.513-15.282,2.769-22.176,6.353-50.439,26.3-97.659,59.276-140.37,96.8A730.781,730.781,0,0,0,303.322,496.247c-1.008,1.439-3.392.064-2.374-1.384q6.009-8.5,12.257-16.813a734.818,734.818,0,0,1,187.6-174.986q18.248-11.826,37.183-22.542c6.362-3.6,12.752-7.16,19.251-10.5,6.371-3.273,13.137-6.215,20.416-6.325,24.77-.385,37.6,27.667,46.405,46.543q4.153,8.911,8.406,17.766,16.075,33.621,33.387,66.628,10.684,20.379,21.837,40.52,34.707,62.718,73.779,122.9c34.506,53.143,68.737,100.089,108.046,149.785C870.6,709.213,868.662,711.175,867.571,709.781Z" transform="translate(-169.934 -164.426)" fill="#e4e4e4"/>
    <path id="Path_180" data-name="Path 180" d="M414.916,355.8c-1.439-1.6-2.869-3.209-4.318-4.813-11.422-12.633-23.679-25.118-39.364-32.361a57.11,57.11,0,0,0-23.927-5.546c-8.562.028-16.932,2.273-24.843,5.418-3.74,1.494-7.4,3.19-11,5-4.116,2.072-8.159,4.281-12.183,6.509q-11.331,6.27-22.368,13.091-21.961,13.572-42.546,29.216-10.671,8.113-20.9,16.758-9.516,8.031-18.646,16.492c-1.3,1.2-3.245-.743-1.944-1.943,1.6-1.494,3.227-2.979,4.85-4.446q6.875-6.215,13.971-12.193,12.939-10.918,26.549-20.993,21.163-15.676,43.783-29.225Q293.33,330,304.945,323.8c2.338-1.247,4.7-2.466,7.1-3.621a113.113,113.113,0,0,1,16.868-6.866,60.007,60.007,0,0,1,25.476-2.5,66.327,66.327,0,0,1,23.505,8.131c15.4,8.608,27.346,21.919,38.97,34.909C418.033,355.171,416.1,357.124,414.916,355.8Z" transform="translate(-169.934 -164.426)" fill="#e4e4e4"/>
    <path id="Path_181" data-name="Path 181" d="M730.477,486.711l36.9-13.5,18.323-6.7c5.968-2.183,11.921-4.667,18.09-6.23a28.539,28.539,0,0,1,16.374.209,37.738,37.738,0,0,1,12.771,7.917,103.648,103.648,0,0,1,10.475,11.186c3.989,4.794,7.92,9.639,11.868,14.467q24.441,29.891,48.563,60.041t47.92,60.556q23.857,30.48,47.385,61.216,2.882,3.765,5.76,7.534c1.06,1.388,3.449.02,2.375-1.388q-23.7-31.045-47.736-61.835-24.092-30.864-48.516-61.466t-49.179-60.937q-6.167-7.558-12.354-15.1c-3.48-4.241-6.92-8.527-10.736-12.474-7.005-7.245-15.758-13.648-26.234-13.822-6.16-.1-12.121,1.852-17.844,3.923-6.17,2.232-12.325,4.506-18.486,6.759l-37.163,13.592-9.291,3.4c-1.649.6-.937,3.262.731,2.652Z" transform="translate(-169.934 -164.426)" fill="#e4e4e4"/>
    <path id="Path_182" data-name="Path 182" d="M366.377,334.526c-18.754-9.639-42.771-7.751-60.005,4.291a855.835,855.835,0,0,1,97.371,22.726C390.46,353.759,380.07,341.564,366.377,334.526Z" transform="translate(-169.934 -164.426)" fill="#f2f2f2"/>
    <path id="Path_183" data-name="Path 183" d="M306.188,338.784l-3.61,2.935c1.221-1.027,2.491-1.99,3.8-2.9Z" transform="translate(-169.934 -164.426)" fill="#f2f2f2"/>
    <path id="Path_184" data-name="Path 184" d="M831.549,486.846c-3.633-4.422-7.56-9.052-12.994-10.848l-5.073.2a575.435,575.435,0,0,0,153.267,175.22Z" transform="translate(-169.934 -164.426)" fill="#f2f2f2"/>
    <path id="Path_185" data-name="Path 185" d="M516.084,450.367a37.481,37.481,0,0,0,14.931,20.958c2.82,1.92,6.157,3.762,7.122,7.035a8.379,8.379,0,0,1-.874,6.15,24.884,24.884,0,0,1-3.861,5.041l-.137.512c-7-4.147-13.656-9.393-17.522-16.551s-4.406-16.539.341-23.145" transform="translate(-169.934 -164.426)" fill="#f2f2f2"/>
    <path id="Path_186" data-name="Path 186" d="M749.084,653.367a37.481,37.481,0,0,0,14.931,20.958c2.82,1.92,6.157,3.762,7.122,7.035a8.378,8.378,0,0,1-.874,6.15,24.885,24.885,0,0,1-3.861,5.041l-.137.512c-7-4.147-13.656-9.393-17.522-16.551s-4.406-16.539.341-23.145" transform="translate(-169.934 -164.426)" fill="#f2f2f2"/>
    <path id="Path_187" data-name="Path 187" d="M284.084,639.367a37.481,37.481,0,0,0,14.931,20.958c2.82,1.92,6.157,3.762,7.122,7.035a8.379,8.379,0,0,1-.874,6.15,24.883,24.883,0,0,1-3.861,5.041l-.137.512c-7-4.147-13.656-9.393-17.522-16.551s-4.406-16.539.341-23.145" transform="translate(-169.934 -164.426)" fill="#f2f2f2"/>
    <circle id="Ellipse_4180" data-name="Ellipse 4180" cx="51" cy="51" r="51" transform="translate(598.249)" fill="#1fd59e"/>
    <path id="Path_188" data-name="Path 188" d="M911.219,176.3c-24.717-3.341-52.935,10.019-59.341,34.124a21.6,21.6,0,0,0-41.094,2.109l2.83,2.027a372.276,372.276,0,0,0,160.659-.726C957.079,195.76,935.935,179.637,911.219,176.3Z" transform="translate(-169.934 -164.426)" fill="#f0f0f0"/>
    <path id="Path_189" data-name="Path 189" d="M805.219,244.3c-24.717-3.341-52.935,10.019-59.341,34.123a21.6,21.6,0,0,0-41.094,2.109l2.83,2.027a372.274,372.274,0,0,0,160.659-.726C851.079,263.76,829.935,247.637,805.219,244.3Z" transform="translate(-169.934 -164.426)" fill="#f0f0f0"/>
    <path id="Path_190" data-name="Path 190" d="M1020.95,257.154a.983.983,0,0,1-.3-.047C756.237,173.489,523.2,184.424,374.264,208.321c-20.269,3.251-40.591,7.006-60.4,11.161-5.058,1.06-10.306,2.2-15.6,3.378-6.319,1.407-12.554,2.856-18.532,4.306q-3.873.917-7.595,1.849c-3.758.928-7.572,1.895-11.66,2.957-4.568,1.178-9.209,2.413-13.8,3.672a.438.438,0,0,1-.051.015h0c-5.183,1.415-10.338,2.871-15.323,4.325-2.7.779-5.3,1.548-7.8,2.307-.279.077-.526.151-.776.228l-.536.163c-.311.095-.617.188-.924.275l-.02.006h0l-.812.252c-.968.293-1.912.579-2.841.864-24.545,7.566-38.038,12.949-38.171,13a1,1,0,1,1-.744-1.856c.134-.053,13.693-5.463,38.328-13.058.932-.286,1.879-.572,2.85-.866l.754-.234c.026-.01.052-.018.078-.025.305-.087.61-.18.919-.273l.537-.163c.268-.081.531-.161.8-.235,2.479-.754,5.093-1.524,7.8-2.307,4.987-1.455,10.148-2.911,15.334-4.328.016-.006.033-.01.049-.015h0c4.6-1.263,9.263-2.5,13.845-3.685,4.094-1.063,7.915-2.032,11.68-2.962q3.738-.93,7.609-1.853c5.985-1.451,12.233-2.9,18.563-4.312,5.3-1.184,10.556-2.322,15.622-3.383,19.843-4.162,40.2-7.923,60.5-11.179,149.149-23.932,382.52-34.884,647.3,48.854a1,1,0,0,1-.3,1.953Z" transform="translate(-169.934 -164.426)" fill="#ccc"/>
    <path id="Path_191" data-name="Path 191" d="M432.923,584.266a6.729,6.729,0,0,0-1.7-2.67,6.426,6.426,0,0,0-.92-.71c-2.61-1.74-6.51-2.13-8.99,0a5.809,5.809,0,0,0-.69.71q-1.11,1.365-2.28,2.67c-1.28,1.46-2.59,2.87-3.96,4.24-.39.38-.78.77-1.18,1.15-.23.23-.46.45-.69.67-.88.84-1.78,1.65-2.69,2.45-.48.43-.96.85-1.45,1.26-.73.61-1.46,1.22-2.2,1.81-.07.05-.14.1-.21.16-.02.01-.03.03-.05.04s-.02,0-.03.02a.178.178,0,0,0-.07.05c-.22.15-.37.25-.48.34.04-.02.08-.05.12-.07-.18.14-.37.28-.55.42-1.75,1.29-3.54,2.53-5.37,3.69a99.2,99.2,0,0,1-14.22,7.55c-.33.13-.67.27-1.01.4a85.97,85.97,0,0,1-40.85,6.02q-2.13-.165-4.26-.45c-1.64-.24-3.27-.53-4.89-.86a97.935,97.935,0,0,1-18.02-5.44,118.648,118.648,0,0,1-20.66-12.12c-1-.71-2.01-1.42-3.02-2.11,1.15-2.82,2.28-5.64,3.38-8.48.55-1.37,1.08-2.74,1.6-4.12,4.09-10.63,7.93-21.36,11.61-32.13q5.58-16.365,10.53-32.92.51-1.68.99-3.36,2.6-8.745,4.98-17.53c.15-.57.31-1.13.45-1.7q.69-2.52,1.35-5.04c1-3.79-1.26-8.32-5.24-9.23a7.634,7.634,0,0,0-9.22,5.24c-.43,1.62-.86,3.23-1.3,4.85q-3.165,11.745-6.66,23.41l-1.02,3.36q-7.71,25.41-16.93,50.31-1.11,3.015-2.25,6.01c-.37.98-.74,1.96-1.12,2.94-.73,1.93-1.48,3.86-2.23,5.79-.43,1.13-.87,2.26-1.31,3.38-.29.71-.57,1.42-.85,2.12a41.809,41.809,0,0,0-8.81-2.12l-.48-.06a27.4,27.4,0,0,0-7.01.06,23.914,23.914,0,0,0-17.24,10.66c-4.77,7.51-4.71,18.25,1.98,24.63,6.89,6.57,17.32,6.52,25.43,2.41a28.351,28.351,0,0,0,10.52-9.86,50.57,50.57,0,0,0,2.74-4.65c.21.14.42.28.63.43.8.56,1.6,1.13,2.39,1.69a111.735,111.735,0,0,0,14.51,8.91,108.361,108.361,0,0,0,34.62,10.47c.27.03.53.07.8.1,1.33.17,2.67.3,4.01.41a103.782,103.782,0,0,0,55.58-11.36q2.175-1.125,4.31-2.36,3.315-1.92,6.48-4.08c1.15-.78,2.27-1.57,3.38-2.4a101.035,101.035,0,0,0,13.51-11.95q2.355-2.475,4.51-5.11a8.062,8.062,0,0,0,2.2-5.3A7.565,7.565,0,0,0,432.923,584.266Zm-165.59,23.82c.21-.15.42-.31.62-.47C267.893,607.766,267.6,607.936,267.333,608.086Zm3.21-3.23c-.23.26-.44.52-.67.78a23.371,23.371,0,0,1-2.25,2.2c-.11.1-.23.2-.35.29a.01.01,0,0,0-.01.01,3.816,3.816,0,0,0-.42.22q-.645.39-1.32.72a17,17,0,0,1-2.71.75,16.793,16.793,0,0,1-2.13.02h-.02a14.822,14.822,0,0,1-1.45-.4c-.24-.12-.47-.26-.7-.4-.09-.08-.17-.16-.22-.21a2.447,2.447,0,0,1-.27-.29.01.01,0,0,0,0-.007.01.01,0,0,0-.007,0c-.11-.2-.23-.4-.34-.6a.031.031,0,0,1-.01-.02c-.08-.25-.15-.51-.21-.77a12.509,12.509,0,0,1,.01-1.37,13.459,13.459,0,0,1,.54-1.88,11.078,11.078,0,0,1,.69-1.26c.02-.04.12-.2.23-.38.01-.01.01-.01.01-.02.15-.17.3-.35.46-.51.27-.3.56-.56.85-.83a18.029,18.029,0,0,1,1.75-1.01,19.478,19.478,0,0,1,2.93-.79,24.988,24.988,0,0,1,4.41.04,30.312,30.312,0,0,1,4.1,1.01,36.945,36.945,0,0,1-2.77,4.54C270.623,604.746,270.583,604.806,270.543,604.856Zm-11.12-3.29a2.181,2.181,0,0,1-.31.39,1.409,1.409,0,0,1,.31-.39Z" transform="translate(-169.934 -164.426)" fill="#3f3d56"/>
    <path id="Path_192" data-name="Path 192" d="M402.863,482.136q-.135,4.71-.27,9.42-.285,10.455-.59,20.92-.315,11.775-.66,23.54-.165,6.075-.34,12.15-.465,16.365-.92,32.72c-.03,1.13-.07,2.25-.1,3.38l-.45,16.23q-.255,8.8-.5,17.61-.18,6.6-.37,13.21-1.35,47.895-2.7,95.79a7.648,7.648,0,0,1-7.5,7.5,7.561,7.561,0,0,1-7.5-7.5q.75-26.94,1.52-53.88.675-24.36,1.37-48.72.225-8.025.45-16.06.345-12.09.68-24.18c.03-1.13.07-2.25.1-3.38.02-.99.05-1.97.08-2.96q.66-23.475,1.32-46.96.27-9.24.52-18.49.3-10.545.6-21.08c.09-3.09.17-6.17.26-9.26a7.648,7.648,0,0,1,7.5-7.5A7.561,7.561,0,0,1,402.863,482.136Z" transform="translate(-169.934 -164.426)" fill="#3f3d56"/>
    <path id="Path_193" data-name="Path 193" d="M814.291,484.217a893.23,893.23,0,0,1-28.161,87.941c-3.007,7.946-6.083,15.877-9.372,23.712l.756-1.792a54.585,54.585,0,0,1-5.59,10.612q-.229.321-.467.636,1.166-1.49.443-.589c-.254.3-.5.6-.768.9a23.646,23.646,0,0,1-2.249,2.2q-.3.258-.612.5l.938-.729c-.109.257-.873.6-1.111.743a18.268,18.268,0,0,1-2.4,1.219l1.792-.756a19.082,19.082,0,0,1-4.231,1.161l1.994-.268a17.021,17.021,0,0,1-4.3.046l1.994.268a14,14,0,0,1-3.4-.917l1.792.756a12.013,12.013,0,0,1-1.679-.9c-.271-.177-1.105-.809-.015.025,1.133.866.146.074-.088-.156-.194-.192-.37-.4-.56-.595-.882-.9,1,1.557.4.5a18.173,18.173,0,0,1-.878-1.637l.756,1.792a11.928,11.928,0,0,1-.728-2.651l.268,1.994a13.646,13.646,0,0,1,0-3.4l-.268,1.994a15.969,15.969,0,0,1,.995-3.68l-.756,1.792a16.73,16.73,0,0,1,1.178-2.3,6.73,6.73,0,0,1,.729-1.071c.049.016-1.269,1.513-.569.757.183-.2.354-.406.539-.6.3-.314.614-.6.926-.9,1.045-.994-1.462.966-.257.179a19.056,19.056,0,0,1,2.749-1.5l-1.792.756a20.311,20.311,0,0,1,5-1.34l-1.994.268a25.628,25.628,0,0,1,6.461.076L769.744,599a33.21,33.21,0,0,1,7.892,2.22l-1.792-.756c5.39,2.314,10.163,5.749,14.928,9.118a111.944,111.944,0,0,0,14.506,8.907A108.388,108.388,0,0,0,839.9,628.958a103.933,103.933,0,0,0,92.586-36.752,8.078,8.078,0,0,0,2.2-5.3,7.633,7.633,0,0,0-2.2-5.3c-2.752-2.526-7.949-3.239-10.607,0a95.63,95.63,0,0,1-8.107,8.727q-2.017,1.914-4.142,3.71-1.214,1.026-2.461,2.011c-.393.311-1.619,1.138.263-.2-.431.306-.845.64-1.271.955A99.266,99.266,0,0,1,885.83,608.37l1.792-.756a96.833,96.833,0,0,1-24.171,6.622l1.994-.268a97.647,97.647,0,0,1-25.754-.038l1.994.268a99.8,99.8,0,0,1-24.857-6.77l1.792.756a116.024,116.024,0,0,1-21.736-12.591A86.88,86.88,0,0,0,785.77,588.6a42.823,42.823,0,0,0-14.438-4.388c-9.439-1.111-19.057,2.566-24.246,10.72-4.776,7.5-4.714,18.244,1.974,24.625,6.888,6.573,17.318,6.517,25.436,2.406,7.817-3.959,12.513-12.185,15.815-19.942,7.431-17.455,14.01-35.314,20.14-53.263q9.1-26.637,16.5-53.813.917-3.366,1.807-6.739c1-3.789-1.261-8.32-5.238-9.226a7.633,7.633,0,0,0-9.226,5.238Z" transform="translate(-169.934 -164.426)" fill="#3f3d56"/>
    <path id="Path_194" data-name="Path 194" d="M889.124,482.136l-2.7,95.793-2.685,95.294-1.518,53.884a7.565,7.565,0,0,0,7.5,7.5,7.649,7.649,0,0,0,7.5-7.5l2.7-95.793,2.685-95.294,1.518-53.884a7.565,7.565,0,0,0-7.5-7.5,7.649,7.649,0,0,0-7.5,7.5Z" transform="translate(-169.934 -164.426)" fill="#3f3d56"/>
    <path id="Path_195" data-name="Path 195" d="M629.526,700.361h2.329V594.319h54.329V592H631.854V547.252H673.81q-.923-1.173-1.9-2.317H631.854V515.382c-.77-.328-1.547-.645-2.329-.943v30.5H583.873V507.07c-.782.036-1.553.09-2.329.155v37.71h-36.42V516.684c-.782.346-1.553.711-2.317,1.093v27.158H512.191v2.317h30.616V592H512.191v2.323h30.616V700.361h2.317V594.319a36.414,36.414,0,0,1,36.42,36.427v69.614h2.329V594.319h45.652ZM545.125,592V547.252h36.42V592Zm38.749,0V547.252h.914a44.741,44.741,0,0,1,44.738,44.742Z" transform="translate(-169.934 -164.426)" opacity="0.2"/>
    <path id="Path_196" data-name="Path 196" d="M615.3,668.566a63.058,63.058,0,0,1-20.05,33.7c-.74.64-1.48,1.26-2.25,1.87q-2.8.255-5.57.52c-1.53.14-3.04.29-4.54.43l-.27.03-.19-1.64-.76-6.64a37.623,37.623,0,0,1-3.3-32.44c2.64-7.12,7.42-13.41,12.12-19.65,6.49-8.62,12.8-17.14,13.03-27.65a60.545,60.545,0,0,1,7.9,13.33,16.432,16.432,0,0,0-5.12,3.77c-.41.45-.82,1.08-.54,1.62.24.46.84.57,1.36.63l3.76.39c1,.11,2,.21,3,.32a63.989,63.989,0,0,1,2.45,12.18A61.187,61.187,0,0,1,615.3,668.566Z" transform="translate(-169.934 -164.426)" fill="#3f3d56"/>
    <path id="Path_197" data-name="Path 197" d="M648.5,642.356c-5.9,4.29-9.35,10.46-12.03,17.26a16.628,16.628,0,0,0-7.17,4.58c-.41.45-.82,1.08-.54,1.62.24.46.84.57,1.36.63l3.76.39c-2.68,8.04-5.14,16.36-9.88,23.15a36.989,36.989,0,0,1-12.03,10.91,38.484,38.484,0,0,1-4.02,1.99q-7.62.585-14.95,1.25-2.8.255-5.57.52c-1.53.14-3.04.29-4.54.43q-.015-.825,0-1.65a63.3,63.3,0,0,1,15.25-39.86c.45-.52.91-1.03,1.38-1.54a61.791,61.791,0,0,1,16.81-12.7,62.655,62.655,0,0,1,32.17-6.98Z" transform="translate(-169.934 -164.426)" fill="#1fd59e"/>
    <path id="Path_198" data-name="Path 198" d="M589.163,699.526l-1.15,3.4-.58,1.73c-1.53.14-3.04.29-4.54.43l-.27.03-4.96.51c-.43-.5-.86-1.01-1.28-1.53a62.03,62.03,0,0,1,8.07-87.11c-1.32,6.91.22,13.53,2.75,20.1-.27.11-.53.22-.78.34a16.432,16.432,0,0,0-5.12,3.77c-.41.45-.82,1.08-.54,1.62.24.46.84.57,1.36.63l3.76.39c1,.11,2,.21,3,.32l1.41.15c.07.15.13.29.2.44,2.85,6.18,5.92,12.39,7.65,18.83a43.666,43.666,0,0,1,1.02,4.91A37.6,37.6,0,0,1,589.163,699.526Z" transform="translate(-169.934 -164.426)" fill="#1fd59e"/>
    <path id="Path_199" data-name="Path 199" d="M689.821,554.487c-8.609-16.792-21.946-30.921-37.632-41.3a114.237,114.237,0,0,0-52.563-18.38q-3.69-.335-7.4-.393c-2.921-.044-46.866,12.632-61.587,22.982a114.3,114.3,0,0,0-35.333,39.527,102.5,102.5,0,0,0-12.126,51.633,113.564,113.564,0,0,0,14.7,51.476,110.476,110.476,0,0,0,36.444,38.746c15.339,9.786,30.746,35.735,48.855,36.651,18.246.923,39.054-23.555,55.7-30.987A104.426,104.426,0,0,0,680.6,670.434a110.25,110.25,0,0,0,19.6-48.948c2.574-18.083,1.374-36.733-4.8-54.016a111.847,111.847,0,0,0-5.58-12.983c-1.78-3.505-7-4.8-10.261-2.691a7.68,7.68,0,0,0-2.691,10.261q1.568,3.088,2.915,6.278l-.756-1.792a101.151,101.151,0,0,1,6.876,25.538l-.268-1.994a109.232,109.232,0,0,1-.066,28.682l.268-1.994a109.737,109.737,0,0,1-7.555,27.674l.756-1.792a104.206,104.206,0,0,1-6.672,13.1q-1.923,3.185-4.081,6.222c-.632.888-1.283,1.761-1.939,2.631-.856,1.136,1.167-1.483.282-.369-.151.19-.3.38-.452.569q-.681.852-1.382,1.688a93.61,93.61,0,0,1-10.177,10.384q-1.366,1.192-2.778,2.331c-.469.378-.932.773-1.421,1.125.019-.013,1.58-1.2.656-.511-.291.216-.578.436-.87.652q-2.91,2.156-5.974,4.092a103.48,103.48,0,0,1-14.756,7.713l1.792-.756a109.215,109.215,0,0,1-27.6,7.552l1.994-.268a108.151,108.151,0,0,1-28.589.051l1.994.268a99.838,99.838,0,0,1-25.1-6.785l1.792.756a93.641,93.641,0,0,1-13.416-6.991q-3.174-2-6.184-4.247c-.286-.214-.57-.43-.855-.646-.916-.691.658.51.67.518a19.179,19.179,0,0,1-1.535-1.225q-1.454-1.184-2.861-2.422a101.989,101.989,0,0,1-10.493-10.709q-1.213-1.434-2.374-2.91c-.335-.426-.946-1.29.4.529-.178-.239-.362-.474-.542-.712q-.647-.857-1.276-1.728-2.2-3.048-4.188-6.246a109.29,109.29,0,0,1-7.805-15.108l.756,1.792a106.587,106.587,0,0,1-7.34-26.837l.268,1.994a97.869,97.869,0,0,1-.048-25.636l-.268,1.994a94.676,94.676,0,0,1,6.595-23.959l-.756,1.792a101.56,101.56,0,0,1,7.2-13.856q2.066-3.323,4.378-6.485.525-.718,1.062-1.428c.324-.428,1.215-1.493-.305.388.149-.185.293-.374.439-.56q1.269-1.608,2.6-3.165a107.4,107.4,0,0,1,10.883-11.021q1.474-1.292,2.995-2.529.691-.562,1.391-1.113c.187-.147.376-.291.562-.439-2,1.59-.555.433-.1.093q3.134-2.348,6.435-4.461a103.647,103.647,0,0,1,15.386-8.108l-1.792.756c7.76-3.258,42.141-10.949,48.394-10.11l-1.994-.268a106.229,106.229,0,0,1,26.72,7.382l-1.792-.756a110.3,110.3,0,0,1,12.6,6.329q3.043,1.784,5.967,3.762,1.383.937,2.738,1.915.677.489,1.346.989c.248.185.494.373.741.558,1.039.779-1.431-1.128-.342-.267A110.839,110.839,0,0,1,660.4,539.2q2.4,2.445,4.637,5.045,1.147,1.334,2.246,2.708c.364.455,1.605,2.1.084.085.372.493.747.982,1.114,1.479a97.978,97.978,0,0,1,8.392,13.538c1.793,3.5,6.987,4.8,10.261,2.691A7.677,7.677,0,0,0,689.821,554.487Z" transform="translate(-169.934 -164.426)" fill="#3f3d56"/>
    <path id="Path_200" data-name="Path 200" d="M602.431,676.882a3.78,3.78,0,0,1-2.739-6.551l.259-1.03-.1-.247c-3.48-8.3-25.685,14.833-26.645,22.632a30.027,30.027,0,0,0,.527,10.327,120.393,120.393,0,0,1-10.952-50,116.222,116.222,0,0,1,.721-12.963q.6-5.293,1.657-10.51a121.787,121.787,0,0,1,24.151-51.617c6.874.384,12.9-.663,13.48-13.985.1-2.37,1.861-4.422,2.248-6.756-.656.086-1.323.14-1.979.183l-.624.032-.077,0a3.745,3.745,0,0,1-3.076-6.1l.851-1.046c.43-.538.871-1.065,1.3-1.6a1.862,1.862,0,0,0,.14-.161c.495-.613.99-1.216,1.485-1.829a10.828,10.828,0,0,0-3.55-3.432c-4.959-2.9-11.8-.893-15.384,3.593S579.851,556.6,581.1,562.2a43.4,43.4,0,0,0,6,13.383c-.269.344-.549.678-.818,1.022a122.576,122.576,0,0,0-12.794,20.268c1.016-7.939-11.412-36.608-16.218-42.68-5.773-7.294-17.611-4.111-18.628,5.136q-.015.134-.029.268,1.071.6,2.1,1.282a5.127,5.127,0,0,1-2.067,9.33l-.1.016c-9.556,13.644,21.077,49.155,28.745,41.181a125.108,125.108,0,0,0-6.735,31.693,118.658,118.658,0,0,0,.086,19.16l-.032-.226c-1.7-13.882-30.931-34.522-39.466-32.8-4.917.99-9.76.765-9.013,5.725q.018.119.036.237a34.437,34.437,0,0,1,3.862,1.861q1.071.6,2.1,1.282a5.127,5.127,0,0,1-2.067,9.33l-.1.016-.215.032c-4.35,14.966,27.907,39.12,47.518,31.435h.011a125.079,125.079,0,0,0,8.4,24.528h30.015c.108-.333.2-.678.3-1.011a34.1,34.1,0,0,1-8.305-.495c2.227-2.732,4.454-5.487,6.681-8.219a1.88,1.88,0,0,0,.14-.161c1.13-1.4,2.27-2.786,3.4-4.185v0a49.953,49.953,0,0,0-1.464-12.725ZM568.06,609.269l.016-.021-.016.043ZM561.412,669.2l-.258-.581c.011-.42.011-.839,0-1.269,0-.118-.021-.237-.021-.355.1.742.183,1.485.29,2.227Z" transform="translate(-169.934 -164.426)" fill="#3f3d56"/>
    <circle id="Ellipse_4181" data-name="Ellipse 4181" cx="11" cy="11" r="11" transform="translate(84.249 428)" fill="#3f3d56"/>
    <circle id="Ellipse_4182" data-name="Ellipse 4182" cx="11" cy="11" r="11" transform="translate(216.249 548)" fill="#3f3d56"/>
    <circle id="Ellipse_4183" data-name="Ellipse 4183" cx="11" cy="11" r="11" transform="translate(717.249 548)" fill="#3f3d56"/>
    <circle id="Ellipse_4184" data-name="Ellipse 4184" cx="11" cy="11" r="11" transform="translate(744.249 408)" fill="#3f3d56"/>
    <circle id="Ellipse_4185" data-name="Ellipse 4185" cx="11" cy="11" r="11" transform="translate(712.249 306)" fill="#3f3d56"/>
    <path id="Path_201" data-name="Path 201" d="M434.183,583.426a10.949,10.949,0,1,1-.21-2.16,10.949,10.949,0,0,1,.21,2.16Z" transform="translate(-169.934 -164.426)" fill="#3f3d56"/>
    <circle id="Ellipse_4186" data-name="Ellipse 4186" cx="11" cy="11" r="11" transform="translate(473.249 338)" fill="#3f3d56"/>
    <path id="Path_202" data-name="Path 202" d="M545.183,513.426a10.949,10.949,0,1,1-.21-2.16A10.949,10.949,0,0,1,545.183,513.426Z" transform="translate(-169.934 -164.426)" fill="#3f3d56"/>
    <path id="Path_203" data-name="Path 203" d="M403.183,481.426a10.949,10.949,0,1,1-.21-2.16A10.949,10.949,0,0,1,403.183,481.426Z" transform="translate(-169.934 -164.426)" fill="#3f3d56"/>
    <circle id="Ellipse_4187" data-name="Ellipse 4187" cx="11" cy="11" r="11" transform="translate(588.249 432)" fill="#3f3d56"/>
    <circle id="Ellipse_4188" data-name="Ellipse 4188" cx="16" cy="16" r="16" transform="translate(410.249 322)" fill="#3f3d56"/>
    <path id="Path_204" data-name="Path 204" d="M1028.88,735.267l-857.75.307a1.191,1.191,0,0,1,0-2.381l857.75-.307a1.191,1.191,0,0,1,0,2.381Z" transform="translate(-169.934 -164.426)" fill="#cacaca"/>
  </g>
</svg>
