<svg xmlns="http://www.w3.org/2000/svg" width="578" height="323.502" viewBox="0 0 578 323.502"><g id="undraw_throw_away_re_x60k" transform="translate(0 0)"><path id="Path_1" fill="#e6e6e6" d="M281.164,679.459h-88.3s-1.79-26.253,8.8-26.551,9.4,11.635,22.673-4.773,29.385-15.513,31.473-5.817-4.027,17.452,7.16,15.065S290.262,661.262,281.164,679.459Z" data-name="Path 1" transform="translate(-159.523 -357.19)"/><path id="Path_2" fill="#fff" d="M260.677,679.375l-.3-.012c.7-17.284,4.315-28.388,7.23-34.662,3.164-6.811,6.213-9.568,6.244-9.595l.2.223c-.03.027-3.044,2.756-6.183,9.521C264.97,651.1,261.37,662.156,260.677,679.375Z" data-name="Path 2" transform="translate(-184.679 -357.099)"/><path id="Path_3" fill="#fff" d="M311.57,694.119l-.286-.084a46.276,46.276,0,0,1,11.651-19.383l.2.221A45.962,45.962,0,0,0,311.57,694.119Z" data-name="Path 3" transform="translate(-203.613 -371.808)"/><path id="Path_4" fill="#fff" d="M210.437,690.23l-.3-.041a32.491,32.491,0,0,0-2.922-18.991,26.147,26.147,0,0,0-4.61-6.73l.207-.215a26.474,26.474,0,0,1,4.673,6.813A32.788,32.788,0,0,1,210.437,690.23Z" data-name="Path 4" transform="translate(-163.192 -367.94)"/><path id="Path_5" fill="#2f2e41" d="M287.469,673.452H177.657l-.025-.372c-.063-.925-1.464-22.753,5.609-30.542a7.746,7.746,0,0,1,5.661-2.716c4.61-.131,7.507,1.6,9.844,2.981,4.4,2.613,7.314,4.339,17.893-8.736,11.46-14.164,23.826-17.212,30.934-15.518a11.033,11.033,0,0,1,8.685,8.491,37.6,37.6,0,0,1,.373,10.975c-.241,3.29-.43,5.889.921,7.067,1.13.983,3.38,1.072,7.085.281,7.537-1.608,18.055-.232,23.334,6.589,2.84,3.67,5.078,10.34-.391,21.278Zm-109.063-.8H286.975c4.075-8.268,4.2-15.254.365-20.212-4.843-6.257-15-7.9-22.536-6.3-4.026.859-6.425.717-7.776-.46-1.652-1.439-1.45-4.214-1.193-7.725a37.024,37.024,0,0,0-.357-10.749,10.261,10.261,0,0,0-8.09-7.883c-6.882-1.642-18.9,1.367-30.128,15.243-11.012,13.611-14.33,11.644-18.921,8.918-2.366-1.4-5.051-2.994-9.415-2.87a6.977,6.977,0,0,0-5.092,2.455c-6.355,7-5.58,26.628-5.424,29.579Z" data-name="Path 5" transform="translate(-153.845 -350.783)"/><path id="Path_8" fill="#3f3d56" d="M856.782,619.09H748.621l-.021-.606-5.164-147.706H861.967Zm-106.947-1.256H855.569l5.1-145.8H744.736Z" data-name="Path 8" transform="translate(-364.351 -295.978)"/><g id="Group_1" data-name="Group 1" transform="translate(401.845 202.168)"><rect id="Rectangle_17" width="8.227" height="101.806" fill="#3f3d56" data-name="Rectangle 17"/><rect id="Rectangle_18" width="8.227" height="101.806" fill="#3f3d56" data-name="Rectangle 18" transform="translate(32.392)"/><rect id="Rectangle_19" width="8.227" height="101.806" fill="#3f3d56" data-name="Rectangle 19" transform="translate(64.785)"/></g><path id="Path_214" fill="#3f3d56" d="M961.72,478.438l-.531-.335L826.838,393.2l11.654-18.441.531.335L973.372,460ZM828.573,392.81l132.756,83.9,10.311-16.317-132.755-83.9Z" data-name="Path 214" transform="translate(-395.372 -260.264)"/><path id="Path_10" fill="#3f3d56" d="M968,391.009a24.154,24.154,0,0,0-36.816,23.91l6.406,4.048a19.058,19.058,0,1,1,18.2,11.507l6.406,4.048A24.154,24.154,0,0,0,968,391.009Z" data-name="Path 10" transform="translate(-434.086 -264.915)"/><rect id="Rectangle_21" width="570.9" height="1.256" fill="#3f3d56" data-name="Rectangle 21" transform="translate(0 322.246)"/><g id="Group_6" data-name="Group 6" transform="translate(181.349 0)"><path id="Path_111" fill="#feb8b8" d="M528.89,671h-9.147l-4.354-35.28h13.5Z" data-name="Path 111" transform="translate(-460.878 -357.328)"/><path id="Path_112" fill="#2f2e41" d="M494.234,698.841h28.747V687.734H505.187a10.953,10.953,0,0,0-10.953,10.953h0Z" data-name="Path 112" transform="translate(-453.01 -376.673)"/><path id="Path_113" fill="#feb8b8" d="M531.766,590.44l6.309,6.623,28.546-21.182-9.311-9.774Z" data-name="Path 113" transform="translate(-466.97 -331.434)"/><path id="Path_114" fill="#2f2e41" d="M540.128,612.6,527.85,599.715l-8.041,7.664,19.835,20.812.111-.106A10.954,10.954,0,0,0,540.128,612.6Z" data-name="Path 114" transform="translate(-462.522 -343.935)"/><path id="Path_115" fill="#feb8b8" d="M429.726,390.278a7.5,7.5,0,0,1,3.589-10.928l35.911-91.524,14,8.381-39.893,87.8a7.543,7.543,0,0,1-13.606,6.269Z" data-name="Path 115" transform="translate(-428.596 -227.929)"/><path id="Path_116" fill="#feb8b8" d="M612.063,403.032a7.5,7.5,0,0,1-6.737-9.327l-52.979-82.821,15-6.406,47.629,83.86a7.543,7.543,0,0,1-2.918,14.7Z" data-name="Path 116" transform="translate(-474.625 -234.123)"/><path id="Path_117" fill="#2f2e41" d="M493.853,432.457l9.377,139.373,22.41-1.977,4.614-102.826,12.523,44.161,27.024,1.977-10.7-87.3Z" data-name="Path 117" transform="translate(-452.868 -279.272)"/><path id="Path_118" fill="#2f2e41" d="M559.313,551.224l-3.957,6.591-27.68,19.114,19.774,10.546s38.229-21.092,34.934-27.683Z" data-name="Path 118" transform="translate(-465.448 -325.899)"/><path id="Path_119" fill="#ccc" d="M462.607,318.242l7.8-21.982a39.25,39.25,0,0,1,20.306-22.4h0a56.165,56.165,0,0,1,32.963-1.8l2.839.7a54.87,54.87,0,0,1,20.806,10.049c4.807,3.79,9.132,8.588,9.517,13.749a.159.159,0,0,0,.01.032c1.331,5.836,1.99,36.155,1.99,36.155H547.094l1.858,40.866-.15-.3s-67.739,12.819-67.739,6.228V337.356l-1.389-15.274Z" data-name="Path 119" transform="translate(-441.246 -221.446)"/><circle id="Ellipse_12" cx="18.772" cy="18.772" r="18.772" fill="#feb8b8" data-name="Ellipse 12" transform="translate(65.817 7.351)"/><path id="Path_120" fill="#2f2e41" d="M554.923,210.16l14.576.584c1.834-.006,3.836-.07,5.233-1.256,2.1-1.789,1.752-5.166.625-7.688-3.14-7.023-10.145-9.539-17.837-9.332s-15.752,2.814-19.894,9.3a30.207,30.207,0,0,0-3.7,22.2,24.2,24.2,0,0,1,19.789-13.8Z" data-name="Path 120" transform="translate(-467.522 -192.456)"/></g><g id="Group_4" data-name="Group 4" transform="translate(301.585 101.149)"><path id="Path_81" fill="#1fd59e" d="M673.757,453.679,621,416.7a2.266,2.266,0,0,1-.554-3.15l41.409-59.082a2.266,2.266,0,0,1,3.15-.554l52.757,36.975a2.266,2.266,0,0,1,.554,3.15l-41.407,59.081A2.266,2.266,0,0,1,673.757,453.679Z" data-name="Path 81" transform="translate(-620.038 -353.509)"/><path id="Path_82" fill="#fff" d="M705.288,432.685l-30.957-21.7a3.329,3.329,0,0,1,3.821-5.452l30.957,21.7a3.329,3.329,0,1,1-3.821,5.452Z" data-name="Path 82" transform="translate(-639.704 -372.636)"/><path id="Path_83" fill="#fff" d="M693.976,448.826l-30.957-21.7a3.329,3.329,0,0,1,3.821-5.452l30.957,21.7a3.329,3.329,0,1,1-3.821,5.452Z" data-name="Path 83" transform="translate(-635.497 -378.64)"/><path id="Path_84" fill="#fff" d="M682.542,465.141l-30.957-21.7a3.329,3.329,0,0,1,3.821-5.452l30.957,21.7a3.329,3.329,0,1,1-3.821,5.452Z" data-name="Path 84" transform="translate(-631.244 -384.708)"/><path id="Path_85" fill="#fff" d="M716.383,408.627l-11.991-8.4a3.329,3.329,0,0,1,3.821-5.452l11.99,8.4a3.329,3.329,0,1,1-3.821,5.452Z" data-name="Path 85" transform="translate(-650.885 -368.632)"/></g></g></svg>