<svg xmlns="http://www.w3.org/2000/svg" width="791.68" height="557.87" viewBox="0 0 791.68 557.87"><g id="undraw_project_team_lc5a" transform="translate(0 0)"><path id="Path_118" fill="#f2f2f2" d="M384.646,608.214a400.45,400.45,0,0,1-3.775,51.455c-.083.6-.173,1.2-.256,1.8l-161.217-.9c-.473-.595-.939-1.2-1.391-1.806-1.505-2.016-2.916-4.089-4.211-6.233-6.224-10.331-9.074-22.427-6.218-30.773l.051-.13a14.643,14.643,0,0,1,2.858-4.966c6.511-7.329,19.674-6.107,31.62-.192-10.715-11.728-19.246-26.528-19.895-39.738-.636-12.885,6.1-22.09,13.41-29.912.24-.259.48-.51.719-.761.116-.129.24-.251.356-.381,5.7-5.961,12.349-11.838,21.97-11.127,10.552.781,22.251,9.619,30.454,19.919s13.654,21.984,19.179,33.394,11.518,23.1,20.4,32.845c-12.024-15.209-21.719-32.513-25.3-49.343s-.429-32.994,10.287-40.92a25.063,25.063,0,0,1,10.979-4.43c.462-.077.932-.139,1.409-.194,9.92-1.129,21.765,2.3,31.842,10.5,11.1,9.03,18.793,22.417,22.621,35.125S384.77,596.387,384.646,608.214Z" data-name="Path 118" transform="translate(-206.467 -106.194)"/><path id="Path_119" fill="#fff" d="M279.168,660.9l-3.083-.017q-1.468-.918-2.95-1.814c-.612-.386-1.23-.758-1.85-1.137q-15.338-9.368-30.869-17.971T209.228,623.53a1.292,1.292,0,0,1-.743-1.477.372.372,0,0,1,.051-.108c.146-.274.471-.387.947-.154,1.282.643,2.57,1.285,3.852,1.942q15.715,7.951,31.295,16.7t30.961,18.253c.216.131.432.27.648.4Z" data-name="Path 119" transform="translate(-206.467 -106.194)"/><path id="Path_120" fill="#fff" d="M318.917,661.12l-1.906-.011c-.43-.6-.852-1.2-1.282-1.805q-15.152-21.248-30.3-42.5-24.8-34.787-49.592-69.573a1.227,1.227,0,0,1-.214-.42c-.141-.514.236-.815.719-.761a1.448,1.448,0,0,1,1.007.641q13.906,19.508,27.805,39L314.5,654.914c1.046,1.464,2.092,2.936,3.138,4.4Q318.28,660.218,318.917,661.12Z" data-name="Path 120" transform="translate(-206.467 -106.194)"/><path id="Path_121" fill="#fff" d="M361.386,650.05c-.1,3.213-.31,6.374-.588,9.506q-.081.9-.162,1.8l-2-.011c.061-.6.122-1.2.176-1.8.423-4.525.723-9.1.763-13.8a192.539,192.539,0,0,0-3.79-38.81,241.645,241.645,0,0,0-11.739-40.321,276.9,276.9,0,0,0-19.208-39.893,1.065,1.065,0,0,1-.177-.709c.083-.57.841-.739,1.409-.194a1.654,1.654,0,0,1,.287.363q1.384,2.38,2.717,4.774a276.714,276.714,0,0,1,18.384,40.033A240.5,240.5,0,0,1,358.4,611.367a189.951,189.951,0,0,1,2.983,38.683Z" data-name="Path 121" transform="translate(-206.467 -106.194)"/><path id="Path_122" fill="#ccc" d="M919.865,567.547c0-7.732-29.1-14-65-14s-65,6.268-65,14c0,4.955,11.964,9.306,30,11.794v76.706a6.5,6.5,0,0,0,13,0V580.723c6.872.532,14.277.824,22,.824s15.128-.292,22-.824v75.324a6.5,6.5,0,0,0,13,0V579.341C907.9,576.853,919.865,572.5,919.865,567.547Z" data-name="Path 122" transform="translate(-201.854 -106.194)"/><circle id="Ellipse_4175" cx="28" cy="28" r="28" fill="#2f2e41" data-name="Ellipse 4175" transform="translate(629.199 272.883)"/><path id="Path_123" fill="#a0616a" d="M585.905,415.034h-12.26l-5.832-47.288h18.094Z" data-name="Path 123" transform="translate(3.406 129.742)"/><path id="Path_124" fill="#2f2e41" d="M564.888,411.531h23.644v14.887H550A14.887,14.887,0,0,1,564.888,411.531Z" data-name="Path 124" transform="translate(3.389 129.742)"/><path id="Path_125" fill="#a0616a" d="M566.768,408.192l-11.7-3.671,8.592-46.865,17.264,5.417Z" data-name="Path 125" transform="translate(3.364 129.742)"/><path id="Path_126" fill="#2f2e41" d="M14.887,0H38.531V14.887H0A14.887,14.887,0,0,1,14.887,0Z" data-name="Path 126" transform="translate(536.829 523.842) rotate(17.423)"/><path id="Path_127" fill="#2f2e41" d="M777.223,625.26a4.459,4.459,0,0,1-1.572-.286l-9.019-3.382a4.516,4.516,0,0,1-2.814-5.184c2.271-10.21,10.01-44.971,14.247-63.615,5.026-22.115,78.343-26.225,81.461-26.389l.256-.014,8.248,10.364c2.98,9.579,2.036,17.051-2.808,22.208-14.132,15.047-56.327,5.71-61.359,4.528l-22.428,58.871a4.513,4.513,0,0,1-4.213,2.9Z" data-name="Path 127" transform="translate(-202.692 -106.194)"/><path id="Path_128" fill="#2f2e41" d="M790.223,632.26a4.461,4.461,0,0,1-1.572-.286l-9.019-3.382a4.516,4.516,0,0,1-2.814-5.184c2.271-10.21,10.01-44.971,14.247-63.615,5.026-22.115,78.343-26.225,81.461-26.389l.256-.014,8.248,10.364c2.98,9.579,2.036,17.051-2.808,22.208-14.132,15.046-56.327,5.71-61.359,4.528l-22.428,58.871A4.513,4.513,0,0,1,790.223,632.26Z" data-name="Path 128" transform="translate(-201.854 -106.194)"/><path id="Path_129" fill="#a0616a" d="M764.128,488.24a10.524,10.524,0,0,1,.885,1.4l49.32,5.2,7.1-9.734,16.091,8.794L823.579,517.52,763.092,502.1a10.5,10.5,0,1,1,1.036-13.857Z" data-name="Path 129" transform="translate(-204.889 -115.365)"/><path id="Path_130" fill="#94d1be" d="M878.741,547.722a4.5,4.5,0,0,1-2.05-.5c-9.862-5.015-29.066-13.7-46.874-15.517a4.392,4.392,0,0,1-3.1-1.75,4.518,4.518,0,0,1-.834-3.511c1.607-8.9,5.293-31.547,4.818-49.7a24.6,24.6,0,0,1,18.582-24.468h0a79.853,79.853,0,0,1,9.913-1.954,24.8,24.8,0,0,1,27.559,28.762c-3.176,18.814-6.377,45.09-3.595,63.433a4.507,4.507,0,0,1-1.819,4.349,4.428,4.428,0,0,1-2.606.858Z" data-name="Path 130" transform="translate(-203.854 -112.861)"/><path id="Path_131" fill="#94d1be" d="M831.619,499.871a4.5,4.5,0,0,1-1.787-.373l-12.848-5.561a4.506,4.506,0,0,1-2.342-5.917l9.932-22.942a11.5,11.5,0,0,1,21.107,9.136l-9.931,22.942a4.511,4.511,0,0,1-4.131,2.716Z" data-name="Path 131" transform="translate(-204.752 -122.325)"/><circle id="Ellipse_4176" cx="24.561" cy="24.561" r="24.561" fill="#a0616a" data-name="Ellipse 4176" transform="translate(631.614 285.359)"/><path id="Path_132" fill="#2f2e41" d="M836.026,405.888a88.59,88.59,0,0,0,38.326,12.628l-4.04-4.841a29.689,29.689,0,0,0,9.171,1.821c3.13-.049,6.41-1.254,8.186-3.832a9.342,9.342,0,0,0,.625-8.63,17.7,17.7,0,0,0-5.566-6.96,33.14,33.14,0,0,0-30.844-5.513,19.807,19.807,0,0,0-9.212,5.909c-2.328,2.872-6.811,5.432-5.619,8.932Z" data-name="Path 132" transform="translate(-204.854 -112.131)"/><path id="Path_133" fill="#2f2e41" d="M865.158,386.067a75.486,75.486,0,0,0-27.463-17.759c-6.639-2.459-13.865-3.979-20.805-2.582s-13.5,6.2-15.44,13.008c-1.583,5.568.052,11.564,2.509,16.806s5.738,10.1,7.725,15.54a35.468,35.468,0,0,1-35.689,47.562c6.819.914,13.105,4.119,19.771,5.825s14.533,1.59,19.486-3.185c5.241-5.052,5.346-13.267,5.092-20.543l-1.13-32.445c-.192-5.515-.356-11.208,1.633-16.355s6.716-9.656,12.235-9.609c4.183.035,7.884,2.569,11.239,5.068s6.9,5.165,11.071,5.536,8.923-2.711,8.611-6.883" data-name="Path 133" transform="translate(-205.702 -110.785)"/><path id="Path_134" fill="#a0616a" d="M819.736,541.413a11,11,0,1,1,4.242-21.164h0a10.568,10.568,0,0,1,1.312.665l44.741-20.087,1.257-12.134,19.286-.516-.128,20.2a10.88,10.88,0,0,1-7.861,10.343l-52.322,14.893a10.264,10.264,0,0,1-.359,1.019,11.045,11.045,0,0,1-10.167,6.78Z" data-name="Path 134" transform="translate(-203.854 -109.641)"/><path id="Path_135" fill="#94d1be" d="M888.939,498.08a4.5,4.5,0,0,1-1.762.476l-13.974.859a4.506,4.506,0,0,1-4.767-4.215L866.9,470.248a11.5,11.5,0,0,1,22.956-1.412l1.534,24.953a4.511,4.511,0,0,1-2.453,4.292Z" data-name="Path 135" transform="translate(-203.854 -122.426)"/><path id="Path_136" fill="#3f3d56" d="M3.5,0h79A3.5,3.5,0,0,1,86,3.5h0A3.5,3.5,0,0,1,82.5,7H3.5A3.5,3.5,0,0,1,0,3.5H0A3.5,3.5,0,0,1,3.5,0Z" data-name="Path 136" transform="translate(657.351 439.733) rotate(180)"/><path id="Path_137" fill="#3f3d56" d="M745.07,537.436v-49a6.507,6.507,0,0,1,6.5-6.5h89a6.507,6.507,0,0,1,6.5,6.5v49a6.507,6.507,0,0,1-6.5,6.5h-89a6.507,6.507,0,0,1-6.5-6.5Z" data-name="Path 137" transform="translate(-204.84 -109.763)"/><circle id="Ellipse_4177" cx="6" cy="6" r="6" fill="#fff" data-name="Ellipse 4177" transform="translate(585.076 394.494)"/><path id="Path_138" fill="#ffb8b8" d="M483.247,455.273a10.056,10.056,0,0,0-15.32-1.744l-31.754-16.39,1.974,18.465L468,468.337a10.11,10.11,0,0,0,15.249-13.064Z" data-name="Path 138" transform="translate(-205.031 -114.724)"/><path id="Path_139" fill="#ccc" d="M455.027,462.706a4.505,4.505,0,0,1-3.669.039L421.2,449.661a46.373,46.373,0,0,1-23.462-22.7l-15.857-33.471a14.5,14.5,0,0,1,22.9-17.781l27.873,51.714,25.737,19.441a4.515,4.515,0,0,1,1.587,4.921l-2.526,8.159a4.506,4.506,0,0,1-1.524,2.211,4.453,4.453,0,0,1-.9.548Z" data-name="Path 139" transform="translate(-200.34 -111.992)"/><circle id="Ellipse_4178" cx="24.561" cy="24.561" r="24.561" fill="#ffb8b8" data-name="Ellipse 4178" transform="translate(153.09 201.714)"/><path id="Path_140" fill="#ffb8b8" d="M184.661,415.827H196.92l5.833-47.288h-18.1Z" data-name="Path 140" transform="translate(1.108 129.742)"/><path id="Path_141" fill="#2f2e41" d="M0,0H38.531V14.887H14.887A14.887,14.887,0,0,1,0,0H0Z" data-name="Path 141" transform="translate(221.684 556.953) rotate(179.997)"/><path id="Path_142" fill="#ffb8b8" d="M144.661,415.827H156.92l5.833-47.288h-18.1Z" data-name="Path 142" transform="translate(0.868 129.742)"/><path id="Path_143" fill="#2f2e41" d="M0,0H38.531V14.887H14.887A14.887,14.887,0,0,1,0,0H0Z" data-name="Path 143" transform="translate(181.438 556.953) rotate(179.997)"/><path id="Path_144" fill="#2f2e41" d="M346.847,638.228a4.5,4.5,0,0,1-1.075-3.559l21.465-160.985,53.329,9.057,5.691-3.415L411.539,632.07a4.512,4.512,0,0,1-4.1,3.964L391.3,637.38a4.5,4.5,0,0,1-4.866-4.742l4.181-72.742a.5.5,0,0,0-.982-.16l-20.683,76.7a4.508,4.508,0,0,1-4.345,3.329H350.233a4.5,4.5,0,0,1-3.386-1.536Z" data-name="Path 144" transform="translate(-205.557 -106.194)"/><path id="Path_145" fill="#ccc" d="M383.779,484.952a3.533,3.533,0,0,0-4.516-.189L368.6,493.057a4.5,4.5,0,0,1-7.087-2.307c-5.23-18.315-17.078-64.418-14.159-96.866,1.655-18.393,17.537-32.371,35.4-31.2,12.216.814,20.252,7.861,23.886,20.944,8.923,32.122,18.728,91.044,20.6,102.53a4.48,4.48,0,0,1-2.137,4.589,32.939,32.939,0,0,1-16.692,4.7C401.3,495.447,392.765,492.968,383.779,484.952Z" data-name="Path 145" transform="translate(-200.55 -108.278)"/><path id="Path_146" fill="#ffb8b8" d="M387.8,496.379a10.056,10.056,0,0,0-10.979-10.827l-14.872-32.493-9.842,15.747,15.631,28.442a10.11,10.11,0,0,0,20.061-.869Z" data-name="Path 146" transform="translate(-197.572 -104.907)"/><path id="Path_147" fill="#ccc" d="M361.01,484.812a4.505,4.505,0,0,1-2.911-2.233L342.44,453.669a46.373,46.373,0,0,1-4.454-32.339l8.178-36.123a14.5,14.5,0,0,1,28.993.142l-9.981,57.893,8.254,31.181a4.515,4.515,0,0,1-1.789,4.852l-7.023,4.861a4.505,4.505,0,0,1-2.564.8,4.456,4.456,0,0,1-1.043-.123Z" data-name="Path 147" transform="translate(-200.663 -108.215)"/><path id="Path_148" d="M166.7,173.828l-9,38,13,32-9-31Z" data-name="Path 148" opacity=".2" transform="translate(-2.06 86.974)"/><path id="Path_149" fill="#2f2e41" d="M367.163,349.764a16.539,16.539,0,0,1-6.388-1.156c-.894-.345-1.822-.628-2.715-.973-7.882-3.045-13.074-11.439-13.26-19.887s4.189-16.646,10.685-22.05,14.91-8.177,23.335-8.819c9.075-.691,19.294,1.61,24.365,9.168,1.35,2.012,2.294,4.453,1.494,6.882a4.4,4.4,0,0,1-1.241,1.906c-2.265,2.015-4.522.5-6.831.366-3.173-.184-6.023,2.385-7.048,5.394s-.573,6.322.254,9.391A23.461,23.461,0,0,1,391,335.7a5.741,5.741,0,0,1-2.379,5.055c-1.983,1.2-4.587.5-6.571-.692s-3.7-2.86-5.842-3.741-5.022-.685-6.27,1.267a6.935,6.935,0,0,0-.793,2.289c-1.118,5.095-.861,4.795-1.98,9.89Z" data-name="Path 149" transform="translate(-212.589 -111.936)"/><path id="Path_150" fill="#e6e6e6" d="M580.115,433.115a4.32,4.32,0,0,1-.807-3.705,102.328,102.328,0,0,0,0-47.525,4.321,4.321,0,0,1,.808-3.705,4.248,4.248,0,0,1,3.355-1.626h39.872a4.3,4.3,0,0,1,4.237,3.606,167.488,167.488,0,0,1,0,50.975,4.3,4.3,0,0,1-4.237,3.606H583.47a4.248,4.248,0,0,1-3.355-1.626Z" data-name="Path 150" transform="translate(-204.133 -186.62)"/><path id="Path_151" fill="#e6e6e6" d="M518.434,292.5a4.318,4.318,0,0,1-.807-3.7,102.332,102.332,0,0,0,0-47.525,4.319,4.319,0,0,1,.807-3.7,4.247,4.247,0,0,1,3.355-1.626h39.872a4.3,4.3,0,0,1,4.237,3.606,167.486,167.486,0,0,1,0,50.975,4.3,4.3,0,0,1-4.237,3.606H521.789A4.247,4.247,0,0,1,518.434,292.5Z" data-name="Path 151" transform="translate(-204.519 -235.936)"/><path id="Path_152" fill="#6cceb0" d="M616.545,339.535a167.482,167.482,0,0,1,0-50.975,4.3,4.3,0,0,1,4.237-3.606h39.872a4.247,4.247,0,0,1,3.355,1.626,4.319,4.319,0,0,1,.807,3.7,102.328,102.328,0,0,0,0,47.525,4.318,4.318,0,0,1-.807,3.7,4.247,4.247,0,0,1-3.355,1.626H620.782a4.3,4.3,0,0,1-4.237-3.606Z" data-name="Path 152" transform="translate(-264.911 -177.936)"/><path id="Path_153" fill="#ff6584" d="M449.622,337.755a167.506,167.506,0,0,1,0-50.975,4.3,4.3,0,0,1,4.237-3.606h39.872a4.247,4.247,0,0,1,3.355,1.626,4.319,4.319,0,0,1,.807,3.7,102.328,102.328,0,0,0,0,47.525,4.318,4.318,0,0,1-.807,3.7,4.247,4.247,0,0,1-3.355,1.626H453.86a4.3,4.3,0,0,1-4.238-3.606Z" data-name="Path 153" transform="translate(-204.956 -150.936)"/><path id="Path_154" fill="#6cceb0" d="M459.484,455.426a4.391,4.391,0,0,1-.821-3.766,104,104,0,0,0,0-48.306,4.392,4.392,0,0,1,.821-3.766,4.318,4.318,0,0,1,3.41-1.652h40.528a4.373,4.373,0,0,1,4.307,3.665,170.238,170.238,0,0,1,0,51.813,4.373,4.373,0,0,1-4.307,3.665H462.895a4.318,4.318,0,0,1-3.411-1.652Z" data-name="Path 154" transform="translate(-198.887 -122.974)"/><path id="Path_155" fill="#3f3d56" d="M219.056,664.064H996.949a1.191,1.191,0,1,0,0-2.381H219.056a1.191,1.191,0,1,0,0,2.381Z" data-name="Path 155" transform="translate(-206.467 -106.194)"/><path id="Path_156" fill="#fff" d="M495.6,419.758H474.252a3,3,0,0,1-3-3v-1.274a3,3,0,0,1,3-3H495.6a3,3,0,0,1,3,3v1.274a3,3,0,0,1-3,3Z" data-name="Path 156" transform="translate(-198.859 -125.509)"/><path id="Path_157" fill="#fff" d="M495.6,432.3H474.252a3,3,0,0,1-3-3v-1.274a3,3,0,0,1,3-3H495.6a3,3,0,0,1,3,3V429.3a3,3,0,0,1-3,3Z" data-name="Path 157" transform="translate(-198.859 -121.641)"/><path id="Path_158" fill="#fff" d="M481.462,307.85H460.538a3,3,0,0,1-3-3v-1.172a3,3,0,0,1,3-3h20.924a3,3,0,0,1,3,3v1.172a3,3,0,0,1-3,3Z" data-name="Path 158" transform="translate(-204.943 -150.936)"/><path id="Path_159" fill="#fff" d="M615.141,395.98H594.218a3,3,0,0,1-3-3v-1.172a3,3,0,0,1,3-3h20.923a3,3,0,0,1,3,3v1.172a3,3,0,0,1-3,3Z" data-name="Path 159" transform="translate(-204.132 -188.82)"/><path id="Path_160" fill="#fff" d="M615.141,410.793H594.218a3,3,0,0,1-3-3v-1.172a3,3,0,0,1,3-3h20.923a3,3,0,0,1,3,3v1.172a3,3,0,0,1-3,3Z" data-name="Path 160" transform="translate(-204.132 -184.254)"/><path id="Path_161" fill="#fff" d="M615.141,425.607H594.218a3,3,0,0,1-3-3v-1.173a3,3,0,0,1,3-3h20.923a3,3,0,0,1,3,3v1.172a3,3,0,0,1-3,3Z" data-name="Path 161" transform="translate(-204.132 -179.689)"/><path id="Path_162" fill="#fff" d="M481.462,320.2H460.538a3,3,0,0,1-3-3v-1.172a3,3,0,0,1,3-3h20.924a3,3,0,0,1,3,3V317.2a3,3,0,0,1-3,3Z" data-name="Path 162" transform="translate(-204.943 -150.936)"/><path id="Path_163" fill="#fff" d="M553.639,257.831H532.716a3,3,0,0,1-3-3v-1.172a3,3,0,0,1,3-3h20.923a3,3,0,0,1,3,3v1.172a3,3,0,0,1-3,3Z" data-name="Path 163" transform="translate(-204.505 -235.936)"/><path id="Path_164" fill="#fff" d="M649.113,310.865H628.189a3,3,0,0,1-3-3v-1.172a3,3,0,0,1,3-3h20.924a3,3,0,0,1,3,3v1.172a3,3,0,0,1-3,3Z" data-name="Path 164" transform="translate(-264.926 -177.936)"/></g></svg>