<svg xmlns="http://www.w3.org/2000/svg" width="791.675" height="557.869" viewBox="0 0 791.675 557.869"><g id="slide3" transform="translate(-0.004)"><path id="Path_1" fill="#fff" d="M974.268,454.2c11.819,87.961-4.275,176.018-86.135,210.307a160.7,160.7,0,0,1-210.307-86.135c-34.289-81.861,46.614-130.841,86.135-210.307C844.217,206.7,937.564,181.043,974.268,454.2Z" data-name="Path 1" transform="translate(-186.043 -128.908)"/><ellipse id="Ellipse_1" cx="128.257" cy="17.448" fill="#3f3d56" data-name="Ellipse 1" rx="128.257" ry="17.448" transform="translate(512.595 522.973)"/><rect id="Rectangle_4" width="32.442" height="18.107" fill="#2f2e41" data-name="Rectangle 4" transform="matrix(0.964, -0.266, 0.266, 0.964, 552.543, 502.01)"/><ellipse id="Ellipse_2" cx="5.658" cy="15.089" fill="#2f2e41" data-name="Ellipse 2" rx="5.658" ry="15.089" transform="matrix(0.964, -0.266, 0.266, 0.964, 538.847, 494.969)"/><ellipse id="Ellipse_3" cx="29.801" cy="9.355" fill="#2f2e41" data-name="Ellipse 3" rx="29.801" ry="9.355" transform="translate(619.722 465.748) rotate(-82.281)"/><circle id="Ellipse_4" cx="59.602" cy="59.602" r="59.602" fill="#2f2e41" data-name="Ellipse 4" transform="translate(580.938 430.922)"/><rect id="Rectangle_5" width="32.442" height="18.107" fill="#2f2e41" data-name="Rectangle 5" transform="matrix(0.964, -0.266, 0.266, 0.964, 552.543, 491.448)"/><ellipse id="Ellipse_5" cx="5.658" cy="15.089" fill="#2f2e41" data-name="Ellipse 5" rx="5.658" ry="15.089" transform="matrix(0.964, -0.266, 0.266, 0.964, 538.847, 484.407)"/><circle id="Ellipse_6" cx="20.37" cy="20.37" r="20.37" fill="#fff" data-name="Ellipse 6" transform="translate(623.912 436.01)"/><circle id="Ellipse_7" cx="6.79" cy="6.79" r="6.79" fill="#3f3d56" data-name="Ellipse 7" transform="translate(655.915 443.407)"/><path id="Path_2" fill="#6cceb0" d="M959.505,766.1c22.056-1.1,38.948-21.734,37.73-46.079s-20.086-43.186-42.142-42.082-25.517,18.418-24.3,42.763S937.449,767.2,959.505,766.1Z" data-name="Path 2" transform="translate(-250.137 -234.615)"/><path id="Path_3" fill="#fff" d="M840.625,698.267a13.58,13.58,0,0,1-2.191-27.072c7.476-.6,9.514,5.33,10.12,12.806S848.1,697.662,840.625,698.267Z" data-name="Path 3" transform="translate(-241.317 -230.387)"/><rect id="Rectangle_6" width="95.159" height="48.407" fill="#6cceb0" data-name="Rectangle 6" transform="translate(567.012 371.224)"/><ellipse id="Ellipse_8" cx="29.801" cy="9.355" fill="#2f2e41" data-name="Ellipse 8" rx="29.801" ry="9.355" transform="translate(595.084 477.168) rotate(-82.281)"/><circle id="Ellipse_9" cx="4.931" cy="4.931" r="4.931" fill="#ff6584" data-name="Ellipse 9" transform="translate(465.383 448.59)"/><path id="Path_4" fill="#2f2e41" d="M828.215,409.768a.908.908,0,0,1-.253-.035C606.423,346.646,411.169,354.9,286.38,372.926c-16.982,2.453-34.01,5.286-50.611,8.421-4.238.8-8.635,1.656-13.068,2.549-5.294,1.062-10.518,2.155-15.528,3.248q-3.245.692-6.363,1.395c-3.149.7-6.344,1.429-9.769,2.231-3.827.889-7.716,1.821-11.56,2.77l-.043.011h0c-4.342,1.068-8.662,2.166-12.839,3.263-2.261.588-4.444,1.168-6.535,1.74-.234.058-.441.114-.651.172l-.449.123c-.26.071-.517.141-.774.208h-.016l-.68.19c-.811.221-1.6.437-2.38.652-20.565,5.709-31.871,9.77-31.983,9.809a.871.871,0,0,1-1.089-.42.732.732,0,0,1,.466-.981c.112-.04,11.473-4.122,32.113-9.851.781-.216,1.574-.432,2.388-.654l.632-.177.065-.019c.256-.066.511-.136.77-.206l.45-.123c.224-.061.445-.122.671-.178,2.077-.569,4.267-1.15,6.534-1.74,4.179-1.1,8.5-2.2,12.848-3.265l.041-.011h0c3.858-.953,7.761-1.888,11.6-2.78,3.43-.8,6.632-1.533,9.786-2.235q3.132-.7,6.376-1.4c5.015-1.1,10.25-2.19,15.553-3.254,4.44-.893,8.844-1.752,13.089-2.552,16.626-3.14,33.681-5.977,50.689-8.434,124.967-18.055,320.5-26.318,542.352,36.858a.754.754,0,0,1,.576.834.816.816,0,0,1-.828.639Z" data-name="Path 4" transform="translate(-121.982 -147.312)"/><ellipse id="Ellipse_10" cx="29.801" cy="9.355" fill="#2f2e41" data-name="Ellipse 10" rx="29.801" ry="9.355" transform="translate(169.166 271.955) rotate(-69.082)"/><circle id="Ellipse_11" cx="10.325" cy="10.325" r="10.325" fill="#6cceb0" data-name="Ellipse 11" transform="translate(193.656 210.091)"/><path id="Path_5" fill="#3f3d56" d="M554.811,289.678A11.887,11.887,0,1,1,566.7,277.79a11.887,11.887,0,0,1-11.889,11.888Zm0-22.265a10.378,10.378,0,1,0,10.378,10.378,10.378,10.378,0,0,0-10.378-10.378Z" data-name="Path 5" transform="translate(-193.292 -122.35)"/><path id="Path_6" fill="#3f3d56" d="M664.811,469.678A11.887,11.887,0,1,1,676.7,457.79a11.887,11.887,0,0,1-11.889,11.888Zm0-22.265a10.378,10.378,0,1,0,10.378,10.378,10.378,10.378,0,0,0-10.378-10.378Z" data-name="Path 6" transform="translate(-211.927 -170.302)"/><path id="Path_7" fill="#3f3d56" d="M429.811,557.678A11.887,11.887,0,1,1,441.7,545.79a11.887,11.887,0,0,1-11.889,11.888Zm0-22.264a10.378,10.378,0,1,0,10.378,10.378,10.378,10.378,0,0,0-10.378-10.378Z" data-name="Path 7" transform="translate(-172.116 -193.746)"/><ellipse id="Ellipse_12" cx="128.257" cy="17.448" fill="#3f3d56" data-name="Ellipse 12" rx="128.257" ry="17.448" transform="translate(16.69 522.973)"/><circle id="Ellipse_13" cx="59.602" cy="59.602" r="59.602" fill="#2f2e41" data-name="Ellipse 13" transform="translate(78.408 395.566)"/><rect id="Rectangle_7" width="18.107" height="32.442" fill="#2f2e41" data-name="Rectangle 7" transform="translate(110.85 501.944)"/><rect id="Rectangle_8" width="18.107" height="32.442" fill="#2f2e41" data-name="Rectangle 8" transform="translate(161.786 501.944)"/><ellipse id="Ellipse_14" cx="15.089" cy="5.658" fill="#2f2e41" data-name="Ellipse 14" rx="15.089" ry="5.658" transform="translate(127.161 529.105)"/><ellipse id="Ellipse_15" cx="15.089" cy="5.658" fill="#2f2e41" data-name="Ellipse 15" rx="15.089" ry="5.658" transform="translate(162.043 528.35)"/><circle id="Ellipse_16" cx="20.37" cy="20.37" r="20.37" fill="#fff" data-name="Ellipse 16" transform="translate(131.473 422.488)"/><circle id="Ellipse_17" cx="6.79" cy="6.79" r="6.79" fill="#3f3d56" data-name="Ellipse 17" transform="translate(145.931 436.302)"/><path id="Path_8" fill="#6cceb0" d="M227.989,603.972c-4.813-21.553,10.571-43.331,34.361-48.643s46.976,7.854,51.789,29.407-10.954,29.5-34.743,34.814S232.8,625.525,227.989,603.972Z" data-name="Path 8" transform="translate(-147.795 -200.035)"/><circle id="Ellipse_18" cx="59.602" cy="59.602" r="59.602" fill="#2f2e41" data-name="Ellipse 18" transform="translate(58.038 231.478)"/><rect id="Rectangle_9" width="18.107" height="32.442" fill="#2f2e41" data-name="Rectangle 9" transform="translate(90.48 336.154)"/><rect id="Rectangle_10" width="18.107" height="32.442" fill="#2f2e41" data-name="Rectangle 10" transform="translate(139.376 336.154)"/><ellipse id="Ellipse_19" cx="15.089" cy="5.658" fill="#2f2e41" data-name="Ellipse 19" rx="15.089" ry="5.658" transform="translate(90.48 362.945)"/><ellipse id="Ellipse_20" cx="15.089" cy="5.658" fill="#2f2e41" data-name="Ellipse 20" rx="15.089" ry="5.658" transform="translate(139.598 362.211)"/><circle id="Ellipse_21" cx="20.37" cy="20.37" r="20.37" fill="#fff" data-name="Ellipse 21" transform="translate(98.779 256.113)"/><circle id="Ellipse_22" cx="6.79" cy="6.79" r="6.79" fill="#3f3d56" data-name="Ellipse 22" transform="translate(112.359 269.689)"/><path id="Path_9" fill="#6cceb0" d="M200.989,376.972c-4.813-21.553,10.571-43.331,34.361-48.643s46.976,7.854,51.789,29.407-10.954,29.5-34.743,34.814S205.8,398.525,200.989,376.972Z" data-name="Path 9" transform="translate(-141.165 -139.142)"/><ellipse id="Ellipse_23" cx="9.355" cy="29.801" fill="#2f2e41" data-name="Ellipse 23" rx="9.355" ry="29.801" transform="translate(19.573 259.959) rotate(-64.626)"/><path id="Path_10" fill="#fff" d="M239.1,492.8c0,5.833,15.02,17.353,31.687,17.353s32.294-16.423,32.294-22.256-15.627,1.132-32.294,1.132S239.1,486.968,239.1,492.8Z" data-name="Path 10" transform="translate(-150.741 -180.882)"/><circle id="Ellipse_24" cx="59.602" cy="59.602" r="59.602" fill="#2f2e41" data-name="Ellipse 24" transform="translate(596.379 84.449)"/><rect id="Rectangle_11" width="18.107" height="32.442" fill="#2f2e41" data-name="Rectangle 11" transform="translate(673.223 182.16) rotate(-10.261)"/><rect id="Rectangle_12" width="18.107" height="32.442" fill="#2f2e41" data-name="Rectangle 12" transform="translate(624.423 188.435) rotate(-10.261)"/><ellipse id="Ellipse_25" cx="15.089" cy="5.658" fill="#2f2e41" data-name="Ellipse 25" rx="15.089" ry="5.658" transform="matrix(0.763, -0.646, 0.646, 0.763, 621.025, 227.605)"/><ellipse id="Ellipse_26" cx="15.089" cy="5.658" fill="#2f2e41" data-name="Ellipse 26" rx="15.089" ry="5.658" transform="matrix(0.763, -0.646, 0.646, 0.763, 668.891, 221.465)"/><circle id="Ellipse_27" cx="20.37" cy="20.37" r="20.37" fill="#fff" data-name="Ellipse 27" transform="translate(619.078 104.916)"/><circle id="Ellipse_28" cx="6.79" cy="6.79" r="6.79" fill="#3f3d56" data-name="Ellipse 28" transform="translate(622.577 111.174)"/><path id="Path_11" fill="#6cceb0" d="M931.76,160.146c.9-22.066-18.121-40.755-42.476-41.745s-44.826,16.1-45.722,38.162,16.034,27.079,40.389,28.068S930.864,182.211,931.76,160.146Z" data-name="Path 11" transform="translate(-228.761 -82.039)"/><ellipse id="Ellipse_29" cx="9.355" cy="29.801" fill="#2f2e41" data-name="Ellipse 29" rx="9.355" ry="29.801" transform="translate(552.761 131.288) rotate(-77.117)"/><ellipse id="Ellipse_30" cx="9.355" cy="29.801" fill="#2f2e41" data-name="Ellipse 30" rx="9.355" ry="29.801" transform="translate(686.804 150.199) rotate(-77.117)"/><path id="Path_12" fill="#fff" d="M911.092,288.517a13.58,13.58,0,0,1-26.726,4.838c-1.336-7.38,4.37-9.992,11.75-11.328S909.756,281.136,911.092,288.517Z" data-name="Path 12" transform="translate(-250.82 -126.482)"/><rect id="Rectangle_13" width="1.509" height="86.618" fill="#3f3d56" data-name="Rectangle 13" transform="translate(486.616 75.291) rotate(-52.431)"/><circle id="Ellipse_31" cx="51.303" cy="51.303" r="51.303" fill="#ff6584" data-name="Ellipse 31" transform="translate(396.389 0)"/><circle id="Ellipse_32" cx="10.325" cy="10.325" r="10.325" fill="#6cceb0" data-name="Ellipse 32" transform="translate(58.28 512.434)"/><rect id="Rectangle_14" width="27.16" height="27.16" fill="#b9b5b5" data-name="Rectangle 14" transform="translate(231.612 510.669)"/><circle id="Ellipse_33" cx="10.325" cy="10.325" r="10.325" fill="#6cceb0" data-name="Ellipse 33" transform="translate(220.224 518.47)"/></g></svg>