<svg xmlns="http://www.w3.org/2000/svg" width="462.848" height="420" viewBox="0 0 462.848 420">
  <g id="undraw_active_options_re_8rj3" transform="translate(0 0)">
    <path id="Path_178" data-name="Path 178" d="M751.043,465.995c16.533-9.127,38.564-11.035,54.488-.991a87.806,87.806,0,0,0-48.121,34.747c-4.292,6.409-8.359,13.959-15.982,16.349-4.743,1.487-10.037.57-14.541-1.476s-8.365-5.138-12.171-8.2l-1.216-.265C722.7,490.306,734.511,475.122,751.043,465.995Z" transform="translate(-401.215 -242.709)" fill="#f0f0f0"/>
    <path id="Path_179" data-name="Path 179" d="M805.491,468.309a79,79,0,0,0-45.109,10.284,32.157,32.157,0,0,0-7.854,6.109,17.143,17.143,0,0,0-4.048,8.429c-.554,2.882-.767,5.89-2.053,8.594a11.238,11.238,0,0,1-7.058,5.758c-3.807,1.181-7.836,1-11.77.694-4.368-.34-8.9-.758-13.081.776a.4.4,0,1,1-.277-.753c7.276-2.67,15.081.345,22.553-.925,3.487-.593,6.806-2.181,8.525-5.227,1.5-2.664,1.726-5.765,2.26-8.687a18.2,18.2,0,0,1,3.633-8.381,29.534,29.534,0,0,1,7.576-6.372,75.413,75.413,0,0,1,20.91-8.745,81.137,81.137,0,0,1,25.955-2.336c.54.039.373.82-.163.782Z" transform="translate(-401.351 -245.673)" fill="#fff"/>
    <path id="Path_180" data-name="Path 180" d="M784.617,473.492a10.355,10.355,0,0,1,4.183-13.256c.456-.278.936.378.479.656a9.588,9.588,0,0,0-3.864,12.339c.221.468-.578.727-.8.261Z" transform="translate(-421.39 -243.331)" fill="#fff"/>
    <path id="Path_181" data-name="Path 181" d="M762.271,503.461a23.019,23.019,0,0,0,15.895.1.4.4,0,1,1,.277.753,23.944,23.944,0,0,1-16.54-.135C761.4,503.987,761.769,503.271,762.271,503.461Z" transform="translate(-415.065 -257.499)" fill="#fff"/>
    <path id="Path_182" data-name="Path 182" d="M817.533,469.3a6.156,6.156,0,0,0,3.933,4.375c.507.186.136.9-.368.717a6.9,6.9,0,0,1-4.362-4.83.406.406,0,0,1,.26-.507.431.431,0,0,1,.537.246Z" transform="translate(-430.897 -246.234)" fill="#fff"/>
    <path id="Path_183" data-name="Path 183" d="M811.689,543.913c-.32-.107-.64-.215-.966-.318a88.416,88.416,0,0,0-13.241-3.258c-.347-.063-.7-.122-1.048-.175a94.115,94.115,0,0,0-32.734.68,90.3,90.3,0,0,0-12.6,3.472c-5.661,2.013-11.63,4.62-17.492,4.746a15.689,15.689,0,0,1-1.833-.048L712.809,525.6c-.015-.074-.035-.143-.051-.217l-.8-.9c.206-.089.421-.177.627-.266.119-.052.243-.1.362-.151.081-.033.162-.066.233-.1.027-.011.054-.022.075-.029.071-.034.141-.059.206-.089q1.8-.744,3.627-1.467c.006,0,.006,0,.016,0a132.7,132.7,0,0,1,28.777-8.076c.3-.044.6-.093.9-.126a87.194,87.194,0,0,1,13.415-.889q3.688.052,7.356.455a63.372,63.372,0,0,1,18.23,4.855c11.5,5.006,21.177,13.429,25.58,24.474C811.474,543.349,811.582,543.627,811.689,543.913Z" transform="translate(-400.771 -260.724)" fill="#f0f0f0"/>
    <path id="Path_184" data-name="Path 184" d="M811.545,549.341a77.7,77.7,0,0,0-42.576-17.425,34.381,34.381,0,0,0-10.167.414,18.981,18.981,0,0,0-8.609,4.429c-2.28,1.986-4.369,4.267-7.12,5.695a12.018,12.018,0,0,1-9.308.586c-3.793-1.221-6.895-3.655-9.84-6.135-3.27-2.754-6.622-5.663-10.939-6.814-.523-.14-.263-.9.259-.758,7.512,2,11.821,8.846,18.6,12.079,3.162,1.508,6.825,2.126,10.141.672,2.9-1.272,5.055-3.622,7.346-5.652a20.15,20.15,0,0,1,8.246-4.627,31.756,31.756,0,0,1,10.113-.782,76.825,76.825,0,0,1,22.273,4.9,77.673,77.673,0,0,1,22.214,12.886C812.581,549.147,811.949,549.676,811.545,549.341Z" transform="translate(-400.985 -265.977)" fill="#fff"/>
    <path id="Path_185" data-name="Path 185" d="M798.849,529.443a11.253,11.253,0,0,1,11.795-8.207.408.408,0,0,1,.39.415.413.413,0,0,1-.426.381,10.417,10.417,0,0,0-10.955,7.656C799.53,530.187,798.728,529.939,798.849,529.443Z" transform="translate(-425.755 -263.322)" fill="#fff"/>
    <path id="Path_186" data-name="Path 186" d="M766.425,538.577a21.7,21.7,0,0,0,12.628,9.112c.523.141.263.9-.259.758a22.565,22.565,0,0,1-13.12-9.508C765.393,538.5,766.146,538.14,766.425,538.577Z" transform="translate(-416.201 -268.945)" fill="#fff"/>
    <path id="Path_187" data-name="Path 187" d="M830.857,544.559a5.752,5.752,0,0,0,.35,5.728c.287.436-.467.8-.751.363a6.445,6.445,0,0,1-.4-6.336.442.442,0,0,1,.531-.257A.4.4,0,0,1,830.857,544.559Z" transform="translate(-434.547 -270.799)" fill="#fff"/>
    <path id="Path_188" data-name="Path 188" d="M314.2,661.685c1.94-17.986,13.3-35.906,31.283-42.125a78.927,78.927,0,0,0,1.354,57.175c2.952,7.051,7.014,14.6,4.564,21.825-1.524,4.493-5.431,7.988-9.837,10.215s-9.328,3.347-14.189,4.446l-.944.771C318.29,697.629,312.263,679.671,314.2,661.685Z" transform="translate(-286.284 -295.533)" fill="#f0f0f0"/>
    <path id="Path_189" data-name="Path 189" d="M350.574,619.712a69.165,69.165,0,0,0-17.8,40.454,28.981,28.981,0,0,0,.6,9.59,17.36,17.36,0,0,0,4.825,8.057c2.139,2.121,4.587,4.057,6.142,6.633a10.229,10.229,0,0,1,.764,8.776c-1.235,3.6-3.765,6.564-6.347,9.382-2.866,3.129-5.9,6.337-7.049,10.43-.14.5-.947.262-.807-.233,2.007-7.121,9.188-11.293,12.508-17.739,1.549-3.008,2.147-6.474.555-9.582-1.392-2.717-3.915-4.716-6.1-6.846a18.624,18.624,0,0,1-5.028-7.712,26.823,26.823,0,0,1-.984-9.533,65.779,65.779,0,0,1,4.848-21.1A71.718,71.718,0,0,1,350,619.126c.352-.389.922.2.572.586Z" transform="translate(-291.186 -295.348)" fill="#fff"/>
    <path id="Path_190" data-name="Path 190" d="M330.108,667.5a10.8,10.8,0,0,1-8.876-11.006.424.424,0,0,1,.844.022,10.006,10.006,0,0,0,8.278,10.222c.531.107.281.869-.247.762Z" transform="translate(-288.406 -307.505)" fill="#fff"/>
    <path id="Path_191" data-name="Path 191" d="M339.331,699.048a20.73,20.73,0,0,0,9.458-12.059.422.422,0,0,1,.807.233,21.569,21.569,0,0,1-9.869,12.53.4.4,0,0,1-.4-.7Z" transform="translate(-293.557 -317.526)" fill="#fff"/>
    <path id="Path_192" data-name="Path 192" d="M344.332,640.044a6.737,6.737,0,0,0,6.062-.418c.458-.277.851.428.4.7a7.549,7.549,0,0,1-6.7.477.408.408,0,0,1-.28-.5A.429.429,0,0,1,344.332,640.044Z" transform="translate(-294.898 -302.083)" fill="#fff"/>
    <path id="Path_193" data-name="Path 193" d="M406.405,664.669c-.281.181-.561.362-.842.549a83.562,83.562,0,0,0-10.6,8.174c-.258.227-.517.462-.767.7a84.062,84.062,0,0,0-18.72,25.356,78.607,78.607,0,0,0-4.457,11.65c-1.616,5.5-2.9,11.59-6.254,16.134a14.11,14.11,0,0,1-1.122,1.369l-31.218.657c-.072-.032-.144-.058-.216-.09l-1.245.08c.045-.209.1-.426.142-.635.026-.122.058-.243.084-.365.019-.081.039-.162.051-.237.006-.027.013-.054.019-.074.013-.074.033-.142.045-.209q.427-1.815.883-3.631c0-.007,0-.007.007-.014a115.523,115.523,0,0,1,10.059-26.7c.137-.252.273-.51.424-.762a77.287,77.287,0,0,1,7.151-10.751,69.872,69.872,0,0,1,4.727-5.339,60.212,60.212,0,0,1,14.9-11.036c11.065-5.816,23.977-8.226,36.024-5.069C405.8,664.5,406.1,664.582,406.405,664.669Z" transform="translate(-291.21 -309.767)" fill="#f0f0f0"/>
    <path id="Path_194" data-name="Path 194" d="M406.4,665.639a76.467,76.467,0,0,0-40.015,22.184,30.6,30.6,0,0,0-5.641,8,16.686,16.686,0,0,0-1.287,9.175c.355,2.909,1.075,5.847.674,8.787a10.722,10.722,0,0,1-4.987,7.442c-3.281,2.172-7.193,3.1-11.052,3.884-4.285.87-8.75,1.709-12.281,4.321a.407.407,0,0,1-.5-.645c6.144-4.546,14.539-3.8,21.3-7.055,3.155-1.521,5.844-3.949,6.555-7.335.621-2.961-.118-5.99-.5-8.933a17.773,17.773,0,0,1,.9-9.015,28.114,28.114,0,0,1,5.294-8.171,72.177,72.177,0,0,1,17.327-14.091,79.368,79.368,0,0,1,24.124-9.337C406.841,664.735,406.921,665.529,406.4,665.639Z" transform="translate(-291.262 -310.36)" fill="#fff"/>
    <path id="Path_195" data-name="Path 195" d="M383.95,686.579a10.23,10.23,0,0,1-.067-13.832c.351-.391,1.012.106.66.5a9.474,9.474,0,0,0,.09,12.866c.356.388-.329.854-.683.468Z" transform="translate(-305.663 -312.905)" fill="#fff"/>
    <path id="Path_196" data-name="Path 196" d="M370.144,720.276a22.73,22.73,0,0,0,15.243-4.253c.429-.315.924.33.5.645a23.646,23.646,0,0,1-15.871,4.4C369.47,721.018,369.6,720.231,370.144,720.276Z" transform="translate(-302.339 -327.097)" fill="#fff"/>
    <path id="Path_197" data-name="Path 197" d="M413.134,673.682a6.443,6.443,0,0,0,5.107,3.111c.543.039.407.826-.132.787a7.222,7.222,0,0,1-5.658-3.43.4.4,0,0,1,.094-.556A.441.441,0,0,1,413.134,673.682Z" transform="translate(-314.621 -313.204)" fill="#fff"/>
    <g id="Group_1" data-name="Group 1" transform="translate(40.39 0)">
      <path id="Path_1" data-name="Path 1" d="M578.447,188.978,410.4,173.375a14.365,14.365,0,0,1-5.519-1.7,16.5,16.5,0,0,1-4.565-3.685,17.176,17.176,0,0,1-4.253-11.2,15.575,15.575,0,0,1,.28-2.965,14.2,14.2,0,0,1,.821-2.743,13.236,13.236,0,0,1,1.334-2.453,12.748,12.748,0,0,1,1.816-2.1,12.319,12.319,0,0,1,2.2-1.628,12.124,12.124,0,0,1,5.109-1.594,13.263,13.263,0,0,1,2.779.067l168.053,21.458a8.017,8.017,0,0,1,3.533,1.4,11.294,11.294,0,0,1,2.862,2.927,14.728,14.728,0,0,1,1.918,4.026,16.177,16.177,0,0,1,.7,4.715,15.589,15.589,0,0,1-.171,2.323,13.888,13.888,0,0,1-.5,2.167,12.159,12.159,0,0,1-.82,1.964,10.537,10.537,0,0,1-1.123,1.713,8.885,8.885,0,0,1-1.371,1.37,7.479,7.479,0,0,1-1.548.955,6.787,6.787,0,0,1-3.478.586Z" transform="translate(-350.319 -139.543)" fill="#e4e4e4"/>
      <path id="Path_2" data-name="Path 2" d="M503.753,182.043,410.4,173.375a14.365,14.365,0,0,1-5.519-1.7,16.5,16.5,0,0,1-4.565-3.685,17.176,17.176,0,0,1-4.253-11.2,15.575,15.575,0,0,1,.28-2.965,14.2,14.2,0,0,1,.821-2.743,13.236,13.236,0,0,1,1.334-2.453,12.748,12.748,0,0,1,1.816-2.1,12.319,12.319,0,0,1,2.2-1.628,12.124,12.124,0,0,1,5.109-1.594,13.263,13.263,0,0,1,2.779.067L503.751,155.3Z" transform="translate(-350.319 -139.543)" fill="#1fd59e"/>
      <path id="Path_3" data-name="Path 3" d="M545.632,188.873a2.862,2.862,0,0,1-1.211-.4,3.609,3.609,0,0,1-.987-.883,4.3,4.3,0,0,1-.67-1.242,4.5,4.5,0,0,1-.246-1.467V161.444a4.036,4.036,0,0,1,.246-1.412,3.244,3.244,0,0,1,.67-1.093,2.632,2.632,0,0,1,.99-.673,2.5,2.5,0,0,1,1.211-.134,2.955,2.955,0,0,1,1.2.448,3.791,3.791,0,0,1,.979.921,4.477,4.477,0,0,1,.661,1.258,4.569,4.569,0,0,1,.242,1.464v23.245a4.1,4.1,0,0,1-.242,1.412,3.385,3.385,0,0,1-.661,1.111,2.755,2.755,0,0,1-.982.7,2.526,2.526,0,0,1-1.2.18Z" transform="translate(-392.436 -144.404)" fill="#3f3d56"/>
      <path id="Path_4" data-name="Path 4" d="M335.712,162.964a3.888,3.888,0,0,1-.494-.08,4.066,4.066,0,0,1-.489-.145,4.275,4.275,0,0,1-.479-.209,4.513,4.513,0,0,1-.463-.273,4.353,4.353,0,0,1-1.8-2.5,4.043,4.043,0,0,1-.132-1.026v-17.6a3.714,3.714,0,0,1,.132-.995,3.308,3.308,0,0,1,.381-.874,3.215,3.215,0,0,1,1.419-1.227,3.5,3.5,0,0,1,.941-.274,3.7,3.7,0,0,1,.983-.008,4.048,4.048,0,0,1,.981.252,4.491,4.491,0,0,1,.935.5l14.888,10.44a4.463,4.463,0,0,1,.727.638,4.28,4.28,0,0,1,.934,1.614,4.075,4.075,0,0,1,.174.915.561.561,0,0,0,0,.074.275.275,0,0,1,0,.074v.149a3.729,3.729,0,0,1-.125.972,3.328,3.328,0,0,1-.363.856,3.155,3.155,0,0,1-.581.706,3.241,3.241,0,0,1-.771.522l-14.89,7.156a3.575,3.575,0,0,1-.935.3,3.633,3.633,0,0,1-.487.05A3.738,3.738,0,0,1,335.712,162.964Z" transform="translate(-331.856 -137.729)" fill="#cacaca"/>
    </g>
    <g id="Group_2" data-name="Group 2" transform="translate(40.448 97.825)">
      <path id="Path_5" data-name="Path 5" d="M578.5,312.02l-168.034,2.991a13.29,13.29,0,0,1-5.518-1.09,14.1,14.1,0,0,1-4.565-3.18,15.111,15.111,0,0,1-3.107-4.8,15.88,15.88,0,0,1,0-11.845,15.124,15.124,0,0,1,3.107-4.8,14.114,14.114,0,0,1,4.565-3.184,13.294,13.294,0,0,1,5.518-1.094L578.5,287.88a7.261,7.261,0,0,1,3.533,1.009,9.591,9.591,0,0,1,2.861,2.6,12.929,12.929,0,0,1,1.917,3.814,15.7,15.7,0,0,1,0,9.275A12.944,12.944,0,0,1,584.9,308.4a9.6,9.6,0,0,1-2.861,2.613A7.265,7.265,0,0,1,578.5,312.02Z" transform="translate(-350.398 -283.791)" fill="#e4e4e4"/>
      <path id="Path_6" data-name="Path 6" d="M476.144,313.843l-65.677,1.169a13.29,13.29,0,0,1-5.518-1.09,14.1,14.1,0,0,1-4.565-3.18,15.11,15.11,0,0,1-3.107-4.8,15.733,15.733,0,0,1-1.146-5.922,16.074,16.074,0,0,1,.28-3,15.545,15.545,0,0,1,.821-2.833,15.166,15.166,0,0,1,1.334-2.6,15,15,0,0,1,1.815-2.3,14.461,14.461,0,0,1,2.2-1.874,13.684,13.684,0,0,1,2.458-1.352,13.33,13.33,0,0,1,5.43-1.049l65.677,1.12Z" transform="translate(-350.398 -283.791)" fill="#1fd59e"/>
      <path id="Path_7" data-name="Path 7" d="M508.172,315a2.9,2.9,0,0,1-1.294-.276,3.275,3.275,0,0,1-1.06-.8,3.839,3.839,0,0,1-.717-1.21,4.277,4.277,0,0,1-.264-1.489v-24.25a4.278,4.278,0,0,1,.264-1.49,3.838,3.838,0,0,1,.717-1.211,3.276,3.276,0,0,1,1.06-.8,2.9,2.9,0,0,1,1.294-.276,2.962,2.962,0,0,1,1.289.327,3.431,3.431,0,0,1,1.051.839,4,4,0,0,1,.707,1.225,4.348,4.348,0,0,1,.259,1.487v24.048a4.349,4.349,0,0,1-.259,1.487,4,4,0,0,1-.707,1.226,3.428,3.428,0,0,1-1.051.84A2.963,2.963,0,0,1,508.172,315Z" transform="translate(-381.658 -283.196)" fill="#3f3d56"/>
      <path id="Path_8" data-name="Path 8" d="M335.793,313.813a3.77,3.77,0,0,1-.983-.116,3.817,3.817,0,0,1-.479-.156,3.891,3.891,0,0,1-.462-.222,3.85,3.85,0,0,1-.811-.605,3.717,3.717,0,0,1-.989-1.695,3.872,3.872,0,0,1-.132-1.009v-17.6a3.877,3.877,0,0,1,.132-1.009,3.728,3.728,0,0,1,1.8-2.3,3.865,3.865,0,0,1,.941-.381,3.774,3.774,0,0,1,1.963.026,3.945,3.945,0,0,1,.934.4l14.89,8.792.053.032.053.033.053.034.052.034a3.758,3.758,0,0,1,.65.562,3.687,3.687,0,0,1,.829,1.465,3.85,3.85,0,0,1,.15.853v.245a3.883,3.883,0,0,1-.125.985,3.722,3.722,0,0,1-.943,1.666,3.792,3.792,0,0,1-.777.605l-14.884,8.808a3.992,3.992,0,0,1-.459.233,3.883,3.883,0,0,1-.476.169,3.808,3.808,0,0,1-.487.1A3.763,3.763,0,0,1,335.793,313.813Z" transform="translate(-331.937 -284.969)" fill="#cacaca"/>
    </g>
    <path id="Path_9" data-name="Path 9" d="M578.447,426.956,410.4,448.481a12.317,12.317,0,0,1-10.084-3.161,12.991,12.991,0,0,1-3.108-4.459,14.786,14.786,0,0,1-1.145-5.794,17.18,17.18,0,0,1,4.253-11.2,16.515,16.515,0,0,1,4.565-3.687,14.369,14.369,0,0,1,5.519-1.7l168.052-15.665a6.77,6.77,0,0,1,3.533.616,8.164,8.164,0,0,1,2.862,2.294,11.306,11.306,0,0,1,1.918,3.6,14.665,14.665,0,0,1,.7,4.56,16.18,16.18,0,0,1-.7,4.715,14.727,14.727,0,0,1-1.918,4.027,11.3,11.3,0,0,1-2.862,2.928,8.016,8.016,0,0,1-3.533,1.4Z" transform="translate(-309.928 -224.537)" fill="#e4e4e4"/>
    <path id="Path_10" data-name="Path 10" d="M552.023,431.554,410.4,449.694a12.317,12.317,0,0,1-10.084-3.161,12.988,12.988,0,0,1-3.108-4.459,14.786,14.786,0,0,1-1.145-5.791,16.554,16.554,0,0,1,.28-3.026,17.271,17.271,0,0,1,3.971-8.175,17.045,17.045,0,0,1,2.2-2.114,15.826,15.826,0,0,1,2.457-1.625,14.789,14.789,0,0,1,2.651-1.1,14.033,14.033,0,0,1,2.778-.548l141.63-13.2Z" transform="translate(-309.929 -225.751)" fill="#1fd59e"/>
    <path id="Path_12" data-name="Path 12" d="M335.712,464.136a3.789,3.789,0,0,1-.494.029,3.615,3.615,0,0,1-.489-.036,3.492,3.492,0,0,1-.941-.274,3.215,3.215,0,0,1-1.419-1.23,3.311,3.311,0,0,1-.381-.874,3.719,3.719,0,0,1-.132-.991v-17.6a4.053,4.053,0,0,1,.132-1.024,4.445,4.445,0,0,1,2.741-2.981,3.985,3.985,0,0,1,.983-.225,3.685,3.685,0,0,1,.981.035,3.539,3.539,0,0,1,.933.3l14.89,7.151.054.026.053.028.053.028.052.029a3.2,3.2,0,0,1,.62.461,3.153,3.153,0,0,1,.483.586,3.284,3.284,0,0,1,.334.692,3.57,3.57,0,0,1,.174.778q.006.052.01.1t.007.106q0,.053,0,.107a.691.691,0,0,1,0,.108,4.051,4.051,0,0,1-.125,1,4.26,4.26,0,0,1-.936,1.771,4.459,4.459,0,0,1-.784.693l-14.89,10.446a4.614,4.614,0,0,1-.46.284,4.373,4.373,0,0,1-.476.221,4.158,4.158,0,0,1-.487.158A3.95,3.95,0,0,1,335.712,464.136Z" transform="translate(-291.466 -236.369)" fill="#cacaca"/>
    <path id="Path_198" data-name="Path 198" d="M611.033,416.955a7.453,7.453,0,0,1,5.8,1.657,6.589,6.589,0,0,1,2.38,5.263l23.759,8.633-10.765,7.26-20.912-9.31a6.764,6.764,0,0,1-.265-13.5Z" transform="translate(-369.959 -229.155)" fill="#ffb6b6"/>
    <path id="Path_199" data-name="Path 199" d="M707.05,410.688l4.02,6.9a19.645,19.645,0,0,1-7.123,11.17c-6.154,4.9-38.332,23.146-38.332,23.146l-40.623-19.25,7.106-8.914,31.892,10.089,17.992-16.037Z" transform="translate(-375.763 -227.125)" fill="#3f3d56"/>
    <path id="Path_211" data-name="Path 211" d="M0,0,4.266.044l1.4,129.382L1.4,129.382Z" transform="translate(330.78 292.48) rotate(-10.671)" fill="#cacaca"/>
    <path id="Path_212" data-name="Path 212" d="M2.462.1,6.729.058l-1.4,129.382-4.266.044Z" transform="translate(299.769 419.919) rotate(-169.329)" fill="#cacaca"/>
    <ellipse id="Ellipse_4180" data-name="Ellipse 4180" cx="31.703" cy="9.751" rx="31.703" ry="9.751" transform="translate(292.11 278.208)" fill="#cacaca"/>
    <path id="Path_200" data-name="Path 200" d="M354.8,596.228h-8.734l-4.155-31.8H354.8Z" transform="translate(-98.324 -184.854)" fill="#ffb6b6"/>
    <path id="Path_201" data-name="Path 201" d="M626.925,756.125H598.762v-.336c0-5.714,4.907-10.346,10.961-10.347h17.2Z" transform="translate(-368.22 -336.759)" fill="#2f2e41"/>
    <path id="Path_202" data-name="Path 202" d="M408.352,533.845l-7.629,4.014-20.034-25.867,11.26-5.925Z" transform="translate(-109.475 -165.741)" fill="#ffb6b6"/>
    <path id="Path_203" data-name="Path 203" d="M692.637,689.414l-24.6,12.944-.173-.294a10.049,10.049,0,0,1,4.237-14.076h0l15.024-7.905Z" transform="translate(-387.692 -315.354)" fill="#2f2e41"/>
    <path id="Path_204" data-name="Path 204" d="M719.659,520.323s4.235,12.385-21.749,28.049l-33.464,31.476-34.772,78.513-20.643-8.736,31.746-79.988,18.564-30.682.539-16.648,4.566-11.736,33.128-11.1Z" transform="translate(-371.173 -256.204)" fill="#2f2e41"/>
    <path id="Path_205" data-name="Path 205" d="M654.172,634.749,619.634,585.6a11.193,11.193,0,0,1,1.656-14.782l34.971-32.29,5.929-5.6h13.269L669.237,554.6l-21.584,23.1,24.952,41.68Z" transform="translate(-373.631 -267.159)" fill="#2f2e41"/>
    <path id="Path_206" data-name="Path 206" d="M699.466,422.607l10.407-14.059,23.78-1.806s20.443,18.181,16.724,42.122-7.282,47.478-7.282,47.478-37.047-24.882-56.282-16.14Z" transform="translate(-393.541 -225.833)" fill="#3f3d56"/>
    <path id="Path_207" data-name="Path 207" d="M694.607,527.846a6.787,6.787,0,0,1,3.492-4.677,7.542,7.542,0,0,1,6.041-.476L720.3,504.122l3.913,11.929-15.944,15.807a7.348,7.348,0,0,1-8.717,3.721,6.777,6.777,0,0,1-4.942-7.733Z" transform="translate(-395.747 -257.725)" fill="#ffb6b6"/>
    <path id="Path_208" data-name="Path 208" d="M720.335,497.311l-7.116-9.7,20.208-25.433-10.41-21.056.758-25.046,8.6-1.5.107.051a20.331,20.331,0,0,1,9.161,10.073c2.146,5.064,6.936,24.074,9.6,34.955a12.218,12.218,0,0,1-3.613,11.892Z" transform="translate(-401.134 -228.398)" fill="#3f3d56"/>
    <path id="Path_213" data-name="Path 213" d="M15.026-.286c8.688.223,15.911,7.643,16.134,16.574S24.521,32.277,15.834,32.054-.077,24.41-.3,15.48,6.338-.509,15.026-.286Z" transform="matrix(0.511, -0.86, 0.86, 0.511, 301.698, 167.644)" fill="#ffb6b6"/>
    <path id="Path_209" data-name="Path 209" d="M733.9,361.317c-.173,2.249,2.061,10.543,2.061,10.543,1.638-2.6-.935,6.043-.935,6.043,26.88-17.687,5.641-35.456-2.667-33.877.174-2.249-6.6-1.358-6.6-1.358-2.582-3.8-8.24,1.243-8.24,1.243l1.092-1.734c-4.393,1.055-8.735,13.871-8.735,13.871C711.362,361.578,734.073,359.069,733.9,361.317Z" transform="translate(-400.172 -204.385)" fill="#2f2e41"/>
    <path id="Path_11" data-name="Path 11" d="M612.989,432.222a2.075,2.075,0,0,1-1.062-.135,2.339,2.339,0,0,1-.87-.633,3.117,3.117,0,0,1-.591-1.031,4.03,4.03,0,0,1-.214-1.327V407.13a4.462,4.462,0,0,1,.214-1.375,4.1,4.1,0,0,1,.591-1.161,3.224,3.224,0,0,1,.871-.825,2.4,2.4,0,0,1,1.062-.369,2.1,2.1,0,0,1,1.059.177,2.452,2.452,0,0,1,.863.664,3.244,3.244,0,0,1,.581,1.046,4.084,4.084,0,0,1,.214,1.324v21.8a4.531,4.531,0,0,1-.214,1.371,4.251,4.251,0,0,1-.581,1.174,3.387,3.387,0,0,1-.863.854A2.478,2.478,0,0,1,612.989,432.222Z" transform="translate(-371.524 -224.736)" fill="#3f3d56"/>
    <path id="Path_210" data-name="Path 210" d="M737.162,761.491H276.011a.8.8,0,1,1,0-1.6H737.162a.8.8,0,1,1,0,1.6Z" transform="translate(-275.162 -341.491)" fill="#cacaca"/>
  </g>
</svg>
