<svg xmlns="http://www.w3.org/2000/svg" width="791.676" height="557.872" viewBox="0 0 791.676 557.872"><g id="image1" transform="translate(0 0.003)"><path id="Path_13" fill="#6cceb0" d="M366.368,216.377H315.881a18.323,18.323,0,0,0-18.306,18.306v54.736c-.645-.039-1.291-.1-1.927-.173a64.553,64.553,0,1,1,70.431-74.8C366.185,215.086,366.281,215.732,366.368,216.377Z" data-name="Path 13" transform="translate(-190.939 -160.495)"/><path id="Path_14" fill="#3f3d56" d="M964.573,216.495h-646.5a20.255,20.255,0,0,0-20.233,20.233V577.8a20.255,20.255,0,0,0,20.233,20.233h646.5A20.255,20.255,0,0,0,984.806,577.8V236.728a20.255,20.255,0,0,0-20.233-20.233ZM982.879,577.8a18.323,18.323,0,0,1-18.306,18.306h-646.5A18.323,18.323,0,0,1,299.765,577.8V236.728a18.323,18.323,0,0,1,18.306-18.306h646.5a18.323,18.323,0,0,1,18.306,18.306Z" data-name="Path 14" transform="translate(-193.13 -162.54)"/><path id="Path_15" fill="#3f3d56" d="M934.713,273.792H351.8a.963.963,0,0,1,0-1.927H934.713a.963.963,0,1,1,0,1.927Z" data-name="Path 15" transform="translate(-195.065 -164.562)"/><path id="Path_16" fill="#3f3d56" d="M522.8,557.41a.963.963,0,0,1-.964-.963V239.458a.964.964,0,0,1,1.927,0V556.446a.963.963,0,0,1-.963.963Z" data-name="Path 16" transform="translate(-201.308 -163.343)"/><path id="Path_17" fill="#3f3d56" d="M673.8,557.41a.963.963,0,0,1-.964-.963V239.458a.964.964,0,0,1,1.927,0V556.446a.964.964,0,0,1-.963.963Z" data-name="Path 17" transform="translate(-206.821 -163.343)"/><path id="Path_18" fill="#3f3d56" d="M824.8,557.41a.963.963,0,0,1-.964-.963V239.458a.964.964,0,0,1,1.927,0V556.446a.964.964,0,0,1-.963.963Z" data-name="Path 18" transform="translate(-212.334 -163.343)"/><path id="Path_19" fill="#6cceb0" d="M424.256,375.18H389.05a4.341,4.341,0,0,1-4.336-4.336V329.3a4.341,4.341,0,0,1,4.336-4.336h35.206a4.341,4.341,0,0,1,4.336,4.336v41.545A4.34,4.34,0,0,1,424.256,375.18Z" data-name="Path 19" transform="translate(-196.302 -166.5)"/><path id="Path_20" fill="#6cceb0" d="M476.256,498.18H441.05a4.34,4.34,0,0,1-4.336-4.336V452.3a4.341,4.341,0,0,1,4.336-4.336h35.206a4.341,4.341,0,0,1,4.336,4.336v41.545a4.34,4.34,0,0,1-4.336,4.336Z" data-name="Path 20" transform="translate(-198.2 -170.991)"/><path id="Path_21" fill="#6cceb0" d="M594.256,401.18H559.05a4.341,4.341,0,0,1-4.336-4.336V355.3a4.341,4.341,0,0,1,4.336-4.336h35.206a4.341,4.341,0,0,1,4.336,4.336v41.545a4.341,4.341,0,0,1-4.336,4.336Z" data-name="Path 21" transform="translate(-202.508 -167.449)"/><path id="Path_22" fill="#6cceb0" d="M747.256,354.18H712.05a4.341,4.341,0,0,1-4.336-4.336V308.3a4.341,4.341,0,0,1,4.336-4.336h35.206a4.341,4.341,0,0,1,4.336,4.336v41.545a4.341,4.341,0,0,1-4.336,4.336Z" data-name="Path 22" transform="translate(-208.095 -165.733)"/><path id="Path_23" fill="#6cceb0" d="M888.256,354.18H853.05a4.341,4.341,0,0,1-4.336-4.336V308.3a4.341,4.341,0,0,1,4.336-4.336h35.206a4.341,4.341,0,0,1,4.336,4.336v41.545A4.341,4.341,0,0,1,888.256,354.18Z" data-name="Path 23" transform="translate(-213.243 -165.733)"/><path id="Path_24" fill="#e6e6e6" d="M953.256,366.18H918.05a4.341,4.341,0,0,1-4.336-4.336V320.3a4.341,4.341,0,0,1,4.336-4.336h35.206a4.341,4.341,0,0,1,4.336,4.336v41.545A4.341,4.341,0,0,1,953.256,366.18Z" data-name="Path 24" transform="translate(-215.616 -166.172)"/><path id="Path_25" fill="#e6e6e6" d="M924.256,443.18H889.05a4.341,4.341,0,0,1-4.336-4.336V397.3a4.341,4.341,0,0,1,4.336-4.336h35.206a4.341,4.341,0,0,1,4.336,4.336v41.545A4.34,4.34,0,0,1,924.256,443.18Z" data-name="Path 25" transform="translate(-214.557 -168.983)"/><path id="Path_26" fill="#ff6584" d="M800.256,427.18H765.05a4.341,4.341,0,0,1-4.336-4.336V381.3a4.341,4.341,0,0,1,4.336-4.336h35.206a4.341,4.341,0,0,1,4.336,4.336v41.545a4.341,4.341,0,0,1-4.336,4.336Z" data-name="Path 26" transform="translate(-210.03 -168.399)"/><path id="Path_27" fill="#e6e6e6" d="M729.256,443.18H694.05a4.341,4.341,0,0,1-4.336-4.336V397.3a4.341,4.341,0,0,1,4.336-4.336h35.206a4.341,4.341,0,0,1,4.336,4.336v41.545A4.341,4.341,0,0,1,729.256,443.18Z" data-name="Path 27" transform="translate(-207.437 -168.983)"/><path id="Path_28" fill="#6cceb0" d="M576.256,511.18H541.05a4.341,4.341,0,0,1-4.336-4.336V465.3a4.341,4.341,0,0,1,4.336-4.336h35.206a4.341,4.341,0,0,1,4.336,4.336v41.545A4.341,4.341,0,0,1,576.256,511.18Z" data-name="Path 28" transform="translate(-201.851 -171.466)"/><path id="Path_29" fill="#ff6584" d="M391.256,454.18H356.05a4.34,4.34,0,0,1-4.336-4.336V408.3a4.341,4.341,0,0,1,4.336-4.336h35.206a4.341,4.341,0,0,1,4.336,4.336v41.545A4.34,4.34,0,0,1,391.256,454.18Z" data-name="Path 29" transform="translate(-195.097 -169.385)"/><path id="Path_30" fill="#e6e6e6" d="M494.256,375.18H459.05a4.341,4.341,0,0,1-4.336-4.336V329.3a4.341,4.341,0,0,1,4.336-4.336h35.206a4.341,4.341,0,0,1,4.336,4.336v41.545A4.341,4.341,0,0,1,494.256,375.18Z" data-name="Path 30" transform="translate(-198.857 -166.5)"/><path id="Path_31" fill="#ccc" d="M463.611,257.2H408.692a3.854,3.854,0,0,1,0-7.708h54.919a3.854,3.854,0,1,1,0,7.708Z" data-name="Path 31" transform="translate(-197.036 -163.745)"/><path id="Path_32" fill="#ccc" d="M624.611,257.2H569.692a3.854,3.854,0,0,1,0-7.708h54.919a3.854,3.854,0,1,1,0,7.708Z" data-name="Path 32" transform="translate(-202.915 -163.745)"/><path id="Path_33" fill="#ccc" d="M775.611,257.2H720.692a3.854,3.854,0,0,1,0-7.708h54.919a3.854,3.854,0,0,1,0,7.708Z" data-name="Path 33" transform="translate(-208.428 -163.745)"/><path id="Path_34" fill="#ccc" d="M916.611,257.2H861.692a3.854,3.854,0,0,1,0-7.708h54.919a3.854,3.854,0,0,1,0,7.708Z" data-name="Path 34" transform="translate(-213.576 -163.745)"/><path id="Path_35" fill="#ffb8b8" d="M336.917,548.926a9.689,9.689,0,0,1-8.382-12.266l-24.7-22.99,13.058-3.313,24.285,19.7a9.741,9.741,0,0,1-4.264,18.871Z" data-name="Path 35" transform="translate(-193.349 -173.269)"/><path id="Path_36" fill="#ffb8b8" d="M184.4,564.526h11.812l5.619-45.561H184.4Z" data-name="Path 36" transform="translate(-6.733 -18.948)"/><path id="Path_37" fill="#2f2e41" d="M0,0H37.124V14.343H14.343A14.343,14.343,0,0,1,0,0H0Z" data-name="Path 37" transform="translate(212.261 556.547) rotate(179.997)"/><path id="Path_38" fill="#ffb8b8" d="M100.345,555.733l11.415,3.039,17.151-42.582L112.065,511.7Z" data-name="Path 38" transform="translate(-3.664 -18.683)"/><path id="Path_39" fill="#2f2e41" d="M0,0H37.124V14.343H14.343A14.343,14.343,0,0,1,0,0H0Z" data-name="Path 39" transform="matrix(-0.966, -0.257, 0.257, -0.966, 127.289, 556.549)"/><path id="Path_40" fill="#2f2e41" d="M385.407,709.842H367.383a4.557,4.557,0,0,1-4.554-4.136L351.887,592.079a3.611,3.611,0,0,0-7.054-.689L313.064,697.567a4.569,4.569,0,0,1-5.492,3.128L290.8,696.5a4.574,4.574,0,0,1-3.321-5.576c.274-1.07,27.373-106.974,27.61-108.063,6.14-45.253,13.486-57.379,17.432-63.893.327-.539.627-1.035.9-1.5.338-.586,2.421-6.4,3.742-10.179a4.615,4.615,0,0,1,2.346-2.869c16.582-8.48,35.984-2.61,41.535-.609a4.511,4.511,0,0,1,2.253,1.749c16.654,25.119,8.481,171.011,6.673,200A4.578,4.578,0,0,1,385.407,709.842Z" data-name="Path 40" transform="translate(-192.746 -172.89)"/><circle id="Ellipse_34" cx="23.664" cy="23.664" r="23.664" fill="#ffb8b8" data-name="Ellipse 34" transform="translate(122.482 201.815)"/><path id="Path_41" fill="#ccc" d="M337.171,509.2l-.17-.165c-.319-.309-31.849-31.2-27.768-59.76,1.745-12.217,11.63-20.023,28.585-22.575a26.144,26.144,0,0,1,28.9,18.423l16.765,57.313Z" data-name="Path 41" transform="translate(-193.532 -170.204)"/><path id="Path_42" fill="#ccc" d="M320.5,531.873l-22.467-22.325a12.657,12.657,0,0,1-3.353-11.939l10.876-44.242a9.976,9.976,0,1,1,19.259,5.2l-11.45,38.921,18.517,19.883Z" data-name="Path 42" transform="translate(-193.001 -170.911)"/><path id="Path_43" fill="#ffb8b8" d="M444.886,455.532a9.689,9.689,0,0,1-14.34,3.882l-29.993,15.545,1.326-13.205L428.468,445.3a9.741,9.741,0,0,1,16.418,10.234Z" data-name="Path 43" transform="translate(-196.88 -170.76)"/><path id="Path_44" fill="#ccc" d="M425.153,465l-29.238,12.635a12.341,12.341,0,0,1-12.021-1.29l-37.18-26.64a9.977,9.977,0,1,1,11.981-15.95l31.88,25.091,25.34-9.8Z" data-name="Path 44" transform="translate(-194.762 -170.395)"/><path id="Path_45" fill="#2f2e41" d="M342.761,400.991c2.919-3.658,8.374-3.854,12.384-6.267,5.253-3.161,7.424-10.223,5.732-16.115s-6.685-10.484-12.408-12.68-12.091-2.223-18.129-1.162c-8.99,1.581-17.84,5.776-23.323,13.073s-6.878,17.984-1.909,25.641c2.284,3.519,5.809,6.424,6.721,10.519,1.2,5.376-2.574,10.561-6.614,14.3-4.6,4.265-9.883,7.836-13.915,12.644s-6.721,11.375-4.881,17.374c1.542,5.026,6.027,8.729,10.947,10.583s10.277,2.122,15.533,2.225c5.1.1,10.525-.024,14.824-2.776,4.6-2.946,7.06-8.535,7.242-14s-1.644-10.813-4.09-15.7a60.366,60.366,0,0,1-4.122-8.845c-.969-3.11-1.137-6.639.415-9.5,1.631-3.011,4.93-4.826,8.29-5.486.175-.034.359-.065.552-.092a7.128,7.128,0,0,0,6.1-8.313C341.729,404.285,341.761,402.243,342.761,400.991Z" data-name="Path 45" transform="translate(-192.691 -167.929)"/><path id="Path_46" fill="#a0616a" d="M482.568,565.573H470.756l-5.619-45.561H482.57Z" data-name="Path 46" transform="translate(-16.983 -18.986)"/><path id="Path_47" fill="#2f2e41" d="M461.668,563.8h22.781V578.14H447.325A14.343,14.343,0,0,1,461.669,563.8Z" data-name="Path 47" transform="translate(-16.332 -20.585)"/><path id="Path_48" fill="#a0616a" d="M570.866,551.843l-10.744,4.907-24.043-39.107,15.858-7.244Z" data-name="Path 48" transform="translate(-19.573 -18.635)"/><path id="Path_49" fill="#2f2e41" d="M14.343,0H37.124V14.343H0A14.343,14.343,0,0,1,14.343,0Z" data-name="Path 49" transform="translate(518.422 544.513) rotate(-24.548)"/><path id="Path_50" fill="#a0616a" d="M725.05,566.6a9.689,9.689,0,0,0,.772-14.836l13.885-31.506-17.64,2.99L711.586,552.7A9.741,9.741,0,0,0,725.05,566.6Z" data-name="Path 50" transform="translate(-208.156 -173.63)"/><path id="Path_51" fill="#2f2e41" d="M670.784,708.771H659.5a4.352,4.352,0,0,1-4.324-4.021l-6.154-164.332a4.336,4.336,0,0,1,4.746-4.629l65.262,6.931a4.337,4.337,0,0,1,3.914,4.233l1.368,72.488a3.364,3.364,0,0,0,.225,1.15l26.771,69.422a4.334,4.334,0,0,1-2.547,5.628l-11.435,4.213a4.337,4.337,0,0,1-5.354-2.085l-32.886-63.946a4.315,4.315,0,0,1-.389-1.1l-5.618-27.068a3.372,3.372,0,0,0-6.652.3l-11.333,98.973a4.335,4.335,0,0,1-4.308,3.843Z" data-name="Path 51" transform="translate(-205.951 -174.197)"/><circle id="Ellipse_35" cx="23.664" cy="23.664" r="23.664" fill="#a0616a" data-name="Ellipse 35" transform="translate(446.787 190.402)"/><path id="Path_52" fill="#ccc" d="M692.565,551.141a84.464,84.464,0,0,1-45.161-13.68l-.23-.159.024-.279L656.249,431.6a14.858,14.858,0,0,1,14.066-13.548c11.731-.539,27.489.141,35.924,6.423,12.748,9.495,18.892,23.792,16.857,39.226-4.22,32.006.561,75.18,1.119,80l.04.347-.318.146a74.444,74.444,0,0,1-31.374,6.947Z" data-name="Path 52" transform="translate(-205.884 -169.894)"/><path id="Path_53" fill="#ccc" d="M726.386,544.8a4.824,4.824,0,0,1-3.546-1.563l-5.176-5.647a4.843,4.843,0,0,1-1.069-4.62l11.8-39.95-17.959-37.714a8.487,8.487,0,0,1,15.136-7.673l24.371,39.544a11.515,11.515,0,0,1,.694,10.789l-19.857,44a4.805,4.805,0,0,1-3.629,2.775A4.865,4.865,0,0,1,726.386,544.8Z" data-name="Path 53" transform="translate(-208.164 -170.816)"/><path id="Path_54" fill="#a0616a" d="M553.749,468.781a9.689,9.689,0,0,0,14.451-3.447l34.144,4.428L594.5,453.683l-31.221-1.74a9.741,9.741,0,0,0-9.527,16.838Z" data-name="Path 54" transform="translate(-202.328 -171.109)"/><path id="Path_55" fill="#ccc" d="M629.733,476.315a12.942,12.942,0,0,1-1.777-.123l-53.716-7.45a5.339,5.339,0,0,1-4.1-3,5.453,5.453,0,0,1-.306-.8h0a5.361,5.361,0,0,1,.554-4.27l4.445-7.37a5.381,5.381,0,0,1,4.582-2.588h.007l46.822.054,34.969-31.33A9.476,9.476,0,0,1,674.2,433.235l-34.893,38.808a12.876,12.876,0,0,1-9.579,4.272Z" data-name="Path 55" transform="translate(-203.053 -169.861)"/><path id="Path_56" fill="#2f2e41" d="M678.958,402.471c2.163-5,3.992-11.67-.155-15.209-2.406-2.052-5.871-2.057-9.024-2.312-8.881-.719-18.023-4.806-22.363-12.587s-1.917-19.351,6.273-22.862c5.52-2.366,11.848-.754,17.626.884l17.348,4.919c5.155,1.462,10.567,3.074,14.278,6.939,5.918,6.164,5.476,16.583.775,23.719s-11.78,14.578-19.884,17.288Z" data-name="Path 56" transform="translate(-205.816 -167.353)"/><path id="Path_57" d="M901.648,739.418H190.309a1.147,1.147,0,1,1,0-2.294H901.648a1.147,1.147,0,0,1,0,2.294Z" data-name="Path 57" transform="translate(-189.162 -181.548)"/></g></svg>