<svg xmlns="http://www.w3.org/2000/svg" width="524.933" height="417.627" viewBox="0 0 524.933 417.627">
  <g id="undraw_good_team_re_j1kc" transform="translate(0)">
    <path id="Path_1" data-name="Path 1" d="M900.036,403.822c8.94,66.533-3.233,133.138-65.152,159.073A121.551,121.551,0,0,1,675.81,497.743c-25.936-61.918,35.258-98.966,65.152-159.073C801.667,216.61,872.273,197.206,900.036,403.822Z" transform="translate(-377.716 -162.111)" fill="#fff"/>
    <ellipse id="Ellipse_1" data-name="Ellipse 1" cx="97.012" cy="13.198" rx="97.012" ry="13.198" transform="translate(313.837 391.231)" fill="#3f3d56"/>
    <rect id="Rectangle_4" data-name="Rectangle 4" width="24.538" height="13.696" transform="translate(353.37 370.837) rotate(-15.453)" fill="#2f2e41"/>
    <ellipse id="Ellipse_2" data-name="Ellipse 2" cx="4.28" cy="11.413" rx="4.28" ry="11.413" transform="translate(345.484 365.511) rotate(-15.453)" fill="#2f2e41"/>
    <ellipse id="Ellipse_3" data-name="Ellipse 3" cx="22.541" cy="7.076" rx="22.541" ry="7.076" transform="translate(408.908 348.731) rotate(-82.281)" fill="#2f2e41"/>
    <circle id="Ellipse_4" data-name="Ellipse 4" cx="45.082" cy="45.082" r="45.082" transform="translate(365.53 321.605)" fill="#2f2e41"/>
    <rect id="Rectangle_5" data-name="Rectangle 5" width="24.538" height="13.696" transform="translate(353.37 362.848) rotate(-15.453)" fill="#2f2e41"/>
    <ellipse id="Ellipse_5" data-name="Ellipse 5" cx="4.28" cy="11.413" rx="4.28" ry="11.413" transform="translate(345.484 357.522) rotate(-15.453)" fill="#2f2e41"/>
    <circle id="Ellipse_6" data-name="Ellipse 6" cx="15.408" cy="15.408" r="15.408" transform="translate(410.534 325.454)" fill="#fff"/>
    <circle id="Ellipse_7" data-name="Ellipse 7" cx="5.136" cy="5.136" r="5.136" transform="translate(422.242 331.853)" fill="#3f3d56"/>
    <path id="Path_2" data-name="Path 2" d="M952.459,744.61c16.683-.835,29.46-16.439,28.538-34.854s-15.193-32.665-31.876-31.83-19.3,13.931-18.379,32.346S935.776,745.445,952.459,744.61Z" transform="translate(-489.785 -346.942)" fill="#6cceb0"/>
    <path id="Path_3" data-name="Path 3" d="M837.05,691.662a10.272,10.272,0,0,1-1.657-20.477c5.655-.458,7.2,4.031,7.654,9.686S842.7,691.2,837.05,691.662Z" transform="translate(-439.915 -341.367)" fill="#fff"/>
    <rect id="Rectangle_6" data-name="Rectangle 6" width="71.977" height="36.614" transform="translate(368.735 277.628)" fill="#6cceb0"/>
    <ellipse id="Ellipse_8" data-name="Ellipse 8" cx="22.541" cy="7.076" rx="22.541" ry="7.076" transform="translate(392.651 356.585) rotate(-82.281)" fill="#2f2e41"/>
    <circle id="Ellipse_9" data-name="Ellipse 9" cx="3.729" cy="3.729" r="3.729" transform="translate(308.03 334.969)" fill="#ff6584"/>
    <path id="Path_4" data-name="Path 4" d="M582.371,397.257a.522.522,0,0,1-.165-.027c-144.42-47.718-271.705-41.478-353.055-27.84-11.071,1.855-22.171,4-32.993,6.369-2.763.6-5.629,1.253-8.519,1.928-3.451.8-6.857,1.63-10.122,2.457q-2.116.523-4.148,1.055c-2.053.529-4.136,1.081-6.369,1.687-2.495.672-5.03,1.377-7.536,2.1l-.028.008h0c-2.831.807-5.647,1.638-8.37,2.468q-2.211.667-4.26,1.316c-.152.044-.287.086-.424.13l-.293.093c-.17.054-.337.107-.5.157l-.011,0h0l-.443.144c-.529.167-1.044.331-1.552.493-13.406,4.318-20.777,7.39-20.849,7.42a.539.539,0,0,1-.71-.317.579.579,0,0,1,.3-.742c.073-.03,7.479-3.117,20.935-7.451.509-.163,1.026-.326,1.556-.494l.412-.134.043-.014c.167-.05.333-.1.5-.156l.293-.093c.146-.046.29-.092.438-.134,1.354-.43,2.782-.87,4.259-1.316,2.724-.83,5.543-1.661,8.375-2.47l.027-.008h0c2.515-.721,5.059-1.428,7.562-2.1,2.236-.607,4.323-1.16,6.38-1.69q2.041-.531,4.156-1.057c3.269-.828,6.682-1.656,10.139-2.461,2.894-.675,5.766-1.325,8.533-1.93,10.838-2.375,21.956-4.521,33.044-6.379,81.466-13.657,208.934-19.907,353.557,27.879a.572.572,0,0,1,.375.631.554.554,0,0,1-.54.484Z" transform="translate(-121.982 -200.547)" fill="#2f2e41"/>
    <ellipse id="Ellipse_10" data-name="Ellipse 10" cx="22.541" cy="7.076" rx="22.541" ry="7.076" transform="matrix(0.357, -0.934, 0.934, 0.357, 111.355, 203.81)" fill="#2f2e41"/>
    <circle id="Ellipse_11" data-name="Ellipse 11" cx="7.81" cy="7.81" r="7.81" transform="translate(127.922 157.214)" fill="#94d1be"/>
    <path id="Path_5" data-name="Path 5" d="M551.915,283.886a8.991,8.991,0,1,1,8.991-8.991A8.991,8.991,0,0,1,551.915,283.886Zm0-16.841a7.85,7.85,0,1,0,7.85,7.85,7.85,7.85,0,0,0-7.85-7.85Z" transform="translate(-312.106 -158.487)" fill="#3f3d56"/>
    <path id="Path_6" data-name="Path 6" d="M661.915,463.886a8.991,8.991,0,1,1,8.991-8.991A8.991,8.991,0,0,1,661.915,463.886Zm0-16.841a7.85,7.85,0,1,0,7.849,7.85,7.85,7.85,0,0,0-7.849-7.85Z" transform="translate(-361.789 -239.681)" fill="#3f3d56"/>
    <path id="Path_7" data-name="Path 7" d="M426.916,551.886a8.991,8.991,0,1,1,8.991-8.991A8.991,8.991,0,0,1,426.916,551.886Zm0-16.841a7.85,7.85,0,1,0,7.85,7.849,7.85,7.85,0,0,0-7.85-7.849Z" transform="translate(-255.649 -279.376)" fill="#3f3d56"/>
    <ellipse id="Ellipse_12" data-name="Ellipse 12" cx="97.012" cy="13.198" rx="97.012" ry="13.198" transform="translate(12.624 391.231)" fill="#3f3d56"/>
    <circle id="Ellipse_13" data-name="Ellipse 13" cx="45.082" cy="45.082" r="45.082" transform="translate(59.307 294.862)" fill="#2f2e41"/>
    <rect id="Rectangle_7" data-name="Rectangle 7" width="13.696" height="24.538" transform="translate(83.845 375.325)" fill="#2f2e41"/>
    <rect id="Rectangle_8" data-name="Rectangle 8" width="13.696" height="24.538" transform="translate(106.921 375.325)" fill="#2f2e41"/>
    <ellipse id="Ellipse_14" data-name="Ellipse 14" cx="11.413" cy="4.28" rx="11.413" ry="4.28" transform="translate(83.845 395.869)" fill="#2f2e41"/>
    <ellipse id="Ellipse_15" data-name="Ellipse 15" cx="11.413" cy="4.28" rx="11.413" ry="4.28" transform="translate(106.845 395.299)" fill="#2f2e41"/>
    <circle id="Ellipse_16" data-name="Ellipse 16" cx="15.408" cy="15.408" r="15.408" transform="translate(86.509 316.02)" fill="#fff"/>
    <circle id="Ellipse_17" data-name="Ellipse 17" cx="5.136" cy="5.136" r="5.136" transform="translate(96.524 326.535)" fill="#3f3d56"/>
    <path id="Path_8" data-name="Path 8" d="M227.775,591.836c-3.64-16.3,8-32.775,25.99-36.793s35.532,5.941,39.172,22.243-8.285,22.315-26.279,26.333S231.415,608.137,227.775,591.836Z" transform="translate(-167.117 -289.442)" fill="#6cceb0"/>
    <circle id="Ellipse_18" data-name="Ellipse 18" cx="45.082" cy="45.082" r="45.082" transform="translate(43.899 172.797)" fill="#2f2e41"/>
    <rect id="Rectangle_9" data-name="Rectangle 9" width="13.696" height="24.538" transform="translate(68.438 251.486)" fill="#2f2e41"/>
    <rect id="Rectangle_10" data-name="Rectangle 10" width="13.696" height="24.538" transform="translate(92.111 251.486)" fill="#2f2e41"/>
    <ellipse id="Ellipse_19" data-name="Ellipse 19" cx="11.413" cy="4.28" rx="11.413" ry="4.28" transform="translate(68.438 271.646)" fill="#2f2e41"/>
    <ellipse id="Ellipse_20" data-name="Ellipse 20" cx="11.413" cy="4.28" rx="11.413" ry="4.28" transform="translate(92.046 271.096)" fill="#2f2e41"/>
    <circle id="Ellipse_21" data-name="Ellipse 21" cx="15.408" cy="15.408" r="15.408" transform="translate(74.715 191.571)" fill="#fff"/>
    <circle id="Ellipse_22" data-name="Ellipse 22" cx="5.136" cy="5.136" r="5.136" transform="translate(84.987 201.84)" fill="#3f3d56"/>
    <path id="Path_9" data-name="Path 9" d="M200.775,364.836c-3.64-16.3,8-32.775,25.99-36.793s35.532,5.941,39.172,22.243-8.285,22.315-26.279,26.333S204.415,381.138,200.775,364.836Z" transform="translate(-155.525 -186.61)" fill="#6cceb0"/>
    <ellipse id="Ellipse_23" data-name="Ellipse 23" cx="7.076" cy="22.541" rx="7.076" ry="22.541" transform="translate(14.805 194.584) rotate(-64.626)" fill="#2f2e41"/>
    <path id="Path_10" data-name="Path 10" d="M239.1,491.039c0,4.412,11.361,13.125,23.968,13.125S287.5,491.742,287.5,487.33s-11.82.856-24.427.856S239.1,486.627,239.1,491.039Z" transform="translate(-172.267 -257.586)" fill="#fff"/>
    <circle id="Ellipse_24" data-name="Ellipse 24" cx="45.082" cy="45.082" r="45.082" transform="translate(377.21 63.041)" fill="#2f2e41"/>
    <rect id="Rectangle_11" data-name="Rectangle 11" width="13.696" height="24.538" transform="translate(435.334 136.299) rotate(-10.261)" fill="#2f2e41"/>
    <rect id="Rectangle_12" data-name="Rectangle 12" width="13.696" height="24.538" transform="translate(412.241 140.993) rotate(-10.261)" fill="#2f2e41"/>
    <ellipse id="Ellipse_25" data-name="Ellipse 25" cx="11.413" cy="4.28" rx="11.413" ry="4.28" transform="matrix(0.763, -0.646, 0.646, 0.763, 409.468, 170.453)" fill="#2f2e41"/>
    <ellipse id="Ellipse_26" data-name="Ellipse 26" cx="11.413" cy="4.28" rx="11.413" ry="4.28" transform="matrix(0.763, -0.646, 0.646, 0.763, 432.057, 165.859)" fill="#2f2e41"/>
    <circle id="Ellipse_27" data-name="Ellipse 27" cx="15.408" cy="15.408" r="15.408" transform="translate(407.353 78.477)" fill="#fff"/>
    <circle id="Ellipse_28" data-name="Ellipse 28" cx="5.136" cy="5.136" r="5.136" transform="translate(411.793 83.204)" fill="#3f3d56"/>
    <path id="Path_11" data-name="Path 11" d="M910.265,149.966c.678-16.69-13.707-30.827-32.128-31.575s-33.906,12.175-34.584,28.865,12.128,20.482,30.55,21.231S909.587,166.656,910.265,149.966Z" transform="translate(-452.409 -90.887)" fill="#6cceb0"/>
    <ellipse id="Ellipse_29" data-name="Ellipse 29" cx="7.076" cy="22.541" rx="7.076" ry="22.541" transform="matrix(0.223, -0.975, 0.975, 0.223, 362.11, 98.372)" fill="#2f2e41"/>
    <ellipse id="Ellipse_30" data-name="Ellipse 30" cx="7.076" cy="22.541" rx="7.076" ry="22.541" transform="matrix(0.223, -0.975, 0.975, 0.223, 445.606, 112.52)" fill="#2f2e41"/>
    <path id="Path_12" data-name="Path 12" d="M904.534,286.792a10.272,10.272,0,0,1-20.215,3.66c-1.01-5.582,3.305-7.558,8.888-8.568S903.523,281.209,904.534,286.792Z" transform="translate(-466.318 -165.488)" fill="#fff"/>
    <rect id="Rectangle_13" data-name="Rectangle 13" width="1.141" height="65.517" transform="translate(318.281 56.949) rotate(-52.431)" fill="#3f3d56"/>
    <circle id="Ellipse_31" data-name="Ellipse 31" cx="38.805" cy="38.805" r="38.805" transform="translate(257.322)" fill="#ff6584"/>
    <circle id="Ellipse_32" data-name="Ellipse 32" cx="7.81" cy="7.81" r="7.81" transform="translate(44.083 383.26)" fill="#6cceb0"/>
    <rect id="Rectangle_14" data-name="Rectangle 14" width="20.544" height="20.544" transform="translate(152.805 381.925)" fill="#b9b5b5"/>
    <circle id="Ellipse_33" data-name="Ellipse 33" cx="7.81" cy="7.81" r="7.81" transform="translate(145.472 387.825)" fill="#94d1be"/>
  </g>
</svg>
