<svg xmlns="http://www.w3.org/2000/svg" xmlns:xlink="http://www.w3.org/1999/xlink" width="64" height="64" viewBox="0 0 64 64"><g id="surface197549"><path style="stroke:none;fill-rule:nonzero;fill:#3b413c;fill-opacity:1" d="M 31.988281 2 C 15.453125 2 2 15.457031 2 32 C 2 38.199219 3.867188 44.121094 7.414062 49.160156 L 3.960938 59.453125 C 3.839844 59.808594 3.929688 60.207031 4.195312 60.472656 C 4.460938 60.742188 4.855469 60.839844 5.210938 60.722656 L 15.90625 57.308594 C 20.714844 60.378906 26.273438 62 32.011719 62 C 48.546875 62 62 48.542969 62 32 C 62 15.457031 48.546875 2 32.0625 2.003906 L 32.046875 2 C 32.027344 2 32.007812 2 31.988281 2 Z M 31.988281 4 L 32.011719 4 C 47.445312 4 60 16.5625 60 32 C 60 47.4375 47.445312 60 32.011719 60 C 26.503906 60 21.175781 58.402344 16.609375 55.375 C 16.441406 55.269531 16.25 55.210938 16.058594 55.210938 C 15.953125 55.210938 15.851562 55.226562 15.75 55.257812 L 6.484375 58.21875 L 9.46875 49.316406 C 9.574219 49.007812 9.519531 48.667969 9.328125 48.40625 C 5.84375 43.621094 4 37.945312 4 32 C 4 16.5625 16.554688 4 31.988281 4 Z M 33.207031 7.949219 C 30.933594 7.875 28.652344 8.128906 26.425781 8.71875 C 25.890625 8.855469 25.574219 9.402344 25.714844 9.9375 C 25.851562 10.472656 26.394531 10.792969 26.933594 10.652344 C 31.011719 9.582031 35.292969 9.71875 39.3125 11.054688 C 40.351562 11.398438 41.363281 11.824219 42.328125 12.3125 C 42.476562 12.386719 42.632812 12.421875 42.78125 12.421875 C 43.148438 12.421875 43.5 12.21875 43.675781 11.871094 C 43.925781 11.378906 43.730469 10.777344 43.234375 10.527344 C 42.183594 9.992188 41.078125 9.53125 39.945312 9.15625 C 37.75 8.425781 35.484375 8.023438 33.207031 7.949219 Z M 46.640625 12.988281 C 46.382812 13.015625 46.140625 13.140625 45.96875 13.355469 C 45.621094 13.785156 45.6875 14.414062 46.121094 14.761719 C 46.734375 15.257812 47.328125 15.792969 47.886719 16.351562 C 48.078125 16.546875 48.335938 16.644531 48.59375 16.644531 C 48.847656 16.644531 49.105469 16.550781 49.296875 16.355469 C 49.691406 15.964844 49.691406 15.332031 49.300781 14.941406 C 48.695312 14.332031 48.046875 13.746094 47.375 13.203125 C 47.160156 13.03125 46.894531 12.960938 46.640625 12.988281 Z M 22.300781 17 C 20.929688 17 19.707031 17.449219 18.878906 18.296875 C 18.023438 19.167969 16.015625 21.207031 16.015625 25.21875 C 16.015625 28.632812 18.035156 31.90625 19.285156 33.621094 L 19.421875 33.8125 C 23.191406 39.273438 27.859375 43.359375 32.570312 45.308594 C 36.742188 47.039062 38.976562 47.5 40.515625 47.5 C 41.179688 47.5 41.710938 47.414062 42.21875 47.308594 C 44.46875 46.820312 47.269531 45.152344 48.027344 43.015625 C 48.65625 41.234375 48.8125 39.332031 48.390625 38.597656 C 48.09375 38.074219 47.589844 37.832031 46.949219 37.523438 L 46.53125 37.316406 C 46.484375 37.296875 42.117188 35.121094 41.28125 34.828125 C 40.09375 34.378906 38.992188 34.71875 38.265625 35.746094 L 37.9375 36.203125 C 37.339844 37.046875 36.769531 37.839844 36.328125 38.320312 C 36.191406 38.464844 35.894531 38.484375 35.621094 38.371094 L 35.375 38.269531 C 34.394531 37.875 32.359375 37.050781 29.839844 34.808594 C 27.816406 33.007812 26.371094 30.730469 25.84375 29.839844 C 25.800781 29.765625 25.789062 29.722656 25.78125 29.71875 C 25.808594 29.652344 25.941406 29.5 26.0625 29.359375 C 26.257812 29.109375 26.457031 28.902344 26.652344 28.699219 C 26.820312 28.515625 26.988281 28.335938 27.160156 28.136719 L 27.242188 28.046875 C 27.589844 27.644531 27.863281 27.328125 28.128906 26.753906 C 28.652344 25.746094 28.1875 24.785156 28.035156 24.46875 C 27.917969 24.214844 27.007812 22.007812 26.40625 20.546875 L 25.734375 18.921875 C 25.089844 17.382812 24.378906 17.078125 23.230469 17.03125 C 22.953125 17.015625 22.644531 17 22.300781 17 Z M 22.300781 19 C 22.601562 19 22.867188 19.015625 23.128906 19.03125 C 23.242188 19.035156 23.484375 19.042969 23.535156 19.066406 C 23.542969 19.070312 23.664062 19.160156 23.886719 19.6875 L 24.554688 21.308594 C 25.453125 23.488281 26.097656 25.050781 26.234375 25.332031 C 26.355469 25.585938 26.394531 25.757812 26.335938 25.875 C 26.167969 26.226562 26.039062 26.378906 25.730469 26.734375 L 25.644531 26.828125 C 25.496094 27.007812 25.34375 27.167969 25.195312 27.324219 C 24.964844 27.566406 24.738281 27.8125 24.5 28.101562 C 24.148438 28.515625 23.324219 29.484375 24.113281 30.847656 C 24.832031 32.0625 26.355469 34.382812 28.503906 36.300781 C 31.285156 38.777344 33.625 39.71875 34.625 40.125 L 34.847656 40.214844 C 35.917969 40.65625 37.070312 40.449219 37.789062 39.683594 C 38.324219 39.105469 38.929688 38.257812 39.566406 37.363281 L 39.890625 36.90625 C 40.097656 36.613281 40.242188 36.574219 40.601562 36.710938 C 41.164062 36.90625 44.386719 38.480469 45.632812 39.105469 L 46.078125 39.328125 C 46.285156 39.425781 46.53125 39.542969 46.621094 39.578125 C 46.660156 39.957031 46.609375 41.023438 46.140625 42.347656 C 45.667969 43.6875 43.515625 44.984375 41.800781 45.351562 C 40.777344 45.570312 39.226562 45.902344 33.339844 43.460938 C 28.976562 41.65625 24.621094 37.824219 21.066406 32.675781 C 20.976562 32.542969 20.914062 32.453125 20.855469 32.371094 C 19.792969 30.921875 18.015625 28.0625 18.015625 25.21875 C 18.015625 22.027344 19.5625 20.453125 20.375 19.625 C 20.75 19.238281 21.492188 19 22.300781 19 Z M 9.5625 30.90625 C 9.011719 30.875 8.539062 31.296875 8.507812 31.84375 C 8.472656 32.398438 8.890625 32.871094 9.445312 32.902344 L 11.511719 33.023438 C 11.53125 33.023438 11.550781 33.027344 11.574219 33.027344 C 12.097656 33.027344 12.539062 32.617188 12.566406 32.085938 C 12.601562 31.535156 12.183594 31.058594 11.628906 31.027344 Z M 12.144531 36.304688 C 12.019531 36.28125 11.882812 36.277344 11.75 36.308594 L 9.71875 36.722656 C 9.179688 36.832031 8.828125 37.363281 8.941406 37.90625 C 9.039062 38.378906 9.457031 38.703125 9.921875 38.703125 C 9.988281 38.703125 10.054688 38.695312 10.125 38.683594 L 12.152344 38.265625 C 12.691406 38.152344 13.039062 37.625 12.929688 37.082031 C 12.847656 36.675781 12.527344 36.378906 12.144531 36.304688 Z M 13.613281 41.265625 C 13.484375 41.277344 13.355469 41.308594 13.230469 41.371094 L 11.378906 42.300781 C 10.886719 42.546875 10.683594 43.148438 10.933594 43.640625 C 11.105469 43.992188 11.460938 44.195312 11.828125 44.195312 C 11.976562 44.195312 12.128906 44.160156 12.273438 44.089844 L 14.125 43.160156 C 14.621094 42.914062 14.820312 42.3125 14.574219 41.816406 C 14.386719 41.449219 14.003906 41.242188 13.613281 41.265625 Z M 16.695312 45.632812 C 16.441406 45.617188 16.179688 45.699219 15.972656 45.886719 L 14.421875 47.261719 C 14.011719 47.625 13.976562 48.257812 14.34375 48.671875 C 14.539062 48.894531 14.8125 49.007812 15.089844 49.007812 C 15.324219 49.007812 15.5625 48.925781 15.753906 48.753906 L 17.300781 47.378906 C 17.714844 47.011719 17.75 46.378906 17.386719 45.96875 C 17.203125 45.761719 16.949219 45.648438 16.695312 45.632812 Z M 20.804688 49.097656 C 20.421875 49.027344 20.015625 49.183594 19.785156 49.53125 L 18.648438 51.261719 C 18.34375 51.722656 18.472656 52.339844 18.933594 52.644531 C 19.101562 52.753906 19.292969 52.8125 19.484375 52.8125 C 19.808594 52.8125 20.125 52.652344 20.316406 52.359375 L 21.457031 50.628906 C 21.761719 50.167969 21.636719 49.550781 21.171875 49.246094 C 21.058594 49.171875 20.933594 49.121094 20.804688 49.097656 Z M 20.804688 49.097656"/></g></svg>