<svg xmlns="http://www.w3.org/2000/svg" width="122.739" height="102.34" viewBox="0 0 122.739 122.743">
  <path id="like-heart-round" d="M61.367,0A61.372,61.372,0,1,1,17.974,104.769l-.2-.218A61.372,61.372,0,0,1,61.367,0Zm-.29,45.085c3.838-4,6.523-7.458,12.434-8.134,11.1-1.273,21.307,10.088,15.7,21.273-1.6,3.184-4.842,6.974-8.436,10.689-3.941,4.082-8.3,8.081-11.361,11.111L61.082,88.3,54.2,81.667C45.91,73.684,32.4,63.639,31.95,51.2,31.639,42.481,38.516,36.9,46.43,37,53.5,37.09,56.474,40.609,61.077,45.085ZM99.521,23.22A53.955,53.955,0,0,0,23.042,99.349l.182.17a53.951,53.951,0,0,0,76.3-76.3Z" fill="#6cceb0"/>
</svg>
