<svg xmlns="http://www.w3.org/2000/svg" width="78.898" height="94.741" viewBox="0 0 78.898 94.741">
  <path id="fund-transfer" d="M0,64.758V27.923H78.9V64.758ZM11.826,2.127a1.889,1.889,0,0,0-1.611-.717C8.8,1.579,8.527,3.044,8.38,4.17,7.941,7.408,5.867,17.361,5.6,19.134a1.858,1.858,0,0,0,.409,1.58,1.889,1.889,0,0,0,1.5.648c1.75-.015,11.495-.547,14.856-.486,1.195,0,2.914.093,3.33-1.388a1.881,1.881,0,0,0-.463-1.7L21.37,13.259a37.3,37.3,0,0,1,44.406,6.275c.91.91,1.765,1.858,2.56,2.829H78.829A45.906,45.906,0,0,0,15.673,6.614L11.819,2.127Zm60.133,89.8a1.881,1.881,0,0,0,1.634.663c1.4-.216,1.634-1.681,1.75-2.814.339-3.253,2.1-13.26,2.313-15.049a1.866,1.866,0,0,0-1.974-2.159c-1.742.069-11.472.933-14.871.933-1.195,0-2.914,0-3.284,1.488a1.889,1.889,0,0,0,.517,1.688l4.14,4.541A37.314,37.314,0,0,1,17.323,75.2a38.332,38.332,0,0,1-3.446-4.047H3.6A45.894,45.894,0,0,0,68.128,87.7l3.855,4.225ZM46.657,50.11a8.781,8.781,0,1,1-3.932-11.772A8.781,8.781,0,0,1,46.657,50.11ZM66.4,59.038l-53.789-.362a5.713,5.713,0,0,0-5.79-5.612L6.592,39.587a5.72,5.72,0,0,0,5.62-5.79l53.8.355a5.72,5.72,0,0,0,5.79,5.62l.231,13.476a5.713,5.713,0,0,0-5.628,5.79Z" transform="translate(0 0.004)" fill="#6cceb0" fill-rule="evenodd"/>
</svg>
