<svg xmlns="http://www.w3.org/2000/svg" width="15.058" height="24.051" viewBox="0 0 15.058 24.051">
  <g id="Group_5" data-name="Group 5" transform="translate(657.639 -2585.199)">
    <g id="Group_4" data-name="Group 4" transform="translate(-657.128 2585.793)">
      <path id="Path_170" data-name="Path 170" d="M-650.139,2586.038s-15.727-4.277,0,22.962" transform="translate(657.128 -2585.793)" fill="none" stroke="#000" stroke-width="1"/>
      <path id="Path_171" data-name="Path 171" d="M-657.128,2586.038s15.727-4.277,0,22.962" transform="translate(664.176 -2585.793)" fill="none" stroke="#000" stroke-width="1"/>
      <g id="Path_172" data-name="Path 172" transform="translate(4.635 1.289)">
        <path d="M 2.298051357269287 4.0961012840271 C 1.306601405143738 4.0961012840271 0.5000013709068298 3.289501428604126 0.5000013709068298 2.298051357269287 C 0.5000013709068298 1.306601405143738 1.306601405143738 0.5000013709068298 2.298051357269287 0.5000013709068298 C 3.289501428604126 0.5000013709068298 4.0961012840271 1.306601405143738 4.0961012840271 2.298051357269287 C 4.0961012840271 3.289501428604126 3.289501428604126 4.0961012840271 2.298051357269287 4.0961012840271 Z" stroke="none"/>
        <path d="M 2.298051357269287 1.000001430511475 C 1.582301378250122 1.000001430511475 1.000001430511475 1.582301378250122 1.000001430511475 2.298051357269287 C 1.000001430511475 3.013801336288452 1.582301378250122 3.5961012840271 2.298051357269287 3.5961012840271 C 3.013801336288452 3.5961012840271 3.5961012840271 3.013801336288452 3.5961012840271 2.298051357269287 C 3.5961012840271 1.582301378250122 3.013801336288452 1.000001430511475 2.298051357269287 1.000001430511475 M 2.298051357269287 1.430511474609375e-06 C 3.567231416702271 1.430511474609375e-06 4.5961012840271 1.028871297836304 4.5961012840271 2.298051357269287 C 4.5961012840271 3.567231416702271 3.567231416702271 4.5961012840271 2.298051357269287 4.5961012840271 C 1.028871297836304 4.5961012840271 1.430511474609375e-06 3.567231416702271 1.430511474609375e-06 2.298051357269287 C 1.430511474609375e-06 1.028871297836304 1.028871297836304 1.430511474609375e-06 2.298051357269287 1.430511474609375e-06 Z" stroke="none"/>
      </g>
    </g>
  </g>
</svg>
