<svg fill="#000000" xmlns="http://www.w3.org/2000/svg"  viewBox="0 0 64 64" width="64px" height="64px"><path d="M 13 6 C 9.140625 6 6 9.140625 6 13 L 6 51 C 6 54.859375 9.140625 58 13 58 L 51 58 C 54.859375 58 58 54.859375 58 51 L 58 13 C 58 9.140625 54.859375 6 51 6 Z M 13 8 L 51 8 C 53.757813 8 56 10.242188 56 13 L 56 51 C 56 53.757813 53.757813 56 51 56 L 13 56 C 10.242188 56 8 53.757813 8 51 L 8 13 C 8 10.242188 10.242188 8 13 8 Z M 12 12 C 11.449219 12 11 12.445313 11 13 L 11 15 C 11 15.554688 11.449219 16 12 16 C 12.550781 16 13 15.554688 13 15 L 13 13 C 13 12.445313 12.550781 12 12 12 Z M 17 12 C 16.449219 12 16 12.445313 16 13 L 16 15 C 16 15.554688 16.449219 16 17 16 C 17.550781 16 18 15.554688 18 15 L 18 13 C 18 12.445313 17.550781 12 17 12 Z M 22 12 C 21.449219 12 21 12.445313 21 13 L 21 15 C 21 15.554688 21.449219 16 22 16 C 22.550781 16 23 15.554688 23 15 L 23 13 C 23 12.445313 22.550781 12 22 12 Z M 27 12 C 26.449219 12 26 12.445313 26 13 L 26 15 C 26 15.554688 26.449219 16 27 16 C 27.550781 16 28 15.554688 28 15 L 28 13 C 28 12.445313 27.550781 12 27 12 Z M 32 12 C 31.449219 12 31 12.445313 31 13 L 31 15 C 31 15.554688 31.449219 16 32 16 C 32.550781 16 33 15.554688 33 15 L 33 13 C 33 12.445313 32.550781 12 32 12 Z M 37 12 C 36.449219 12 36 12.445313 36 13 L 36 15 C 36 15.554688 36.449219 16 37 16 C 37.550781 16 38 15.554688 38 15 L 38 13 C 38 12.445313 37.550781 12 37 12 Z M 42 12 C 41.449219 12 41 12.445313 41 13 L 41 15 C 41 15.554688 41.449219 16 42 16 C 42.550781 16 43 15.554688 43 15 L 43 13 C 43 12.445313 42.550781 12 42 12 Z M 47 12 C 46.449219 12 46 12.445313 46 13 L 46 15 C 46 15.554688 46.449219 16 47 16 C 47.550781 16 48 15.554688 48 15 L 48 13 C 48 12.445313 47.550781 12 47 12 Z M 52 12 C 51.449219 12 51 12.445313 51 13 L 51 15 C 51 15.554688 51.449219 16 52 16 C 52.550781 16 53 15.554688 53 15 L 53 13 C 53 12.445313 52.550781 12 52 12 Z M 39.453125 20.796875 C 35.148438 20.796875 31.644531 24.296875 31.644531 28.601563 C 31.644531 28.808594 31.652344 29.015625 31.667969 29.21875 C 26.769531 28.6875 22.234375 26.238281 19.097656 22.386719 C 18.917969 22.164063 18.636719 22.042969 18.347656 22.0625 C 18.0625 22.085938 17.804688 22.25 17.660156 22.5 C 16.96875 23.6875 16.601563 25.042969 16.601563 26.421875 C 16.601563 27.890625 17.011719 29.300781 17.753906 30.515625 C 17.503906 30.410156 17.222656 30.429688 16.984375 30.566406 C 16.71875 30.71875 16.550781 31.003906 16.546875 31.3125 L 16.546875 31.410156 C 16.546875 33.851563 17.6875 36.078125 19.5 37.523438 C 19.382813 37.574219 19.28125 37.648438 19.195313 37.746094 C 18.992188 37.976563 18.921875 38.300781 19.015625 38.59375 C 19.792969 41.015625 21.675781 42.855469 24.003906 43.625 C 22.09375 44.675781 19.953125 45.226563 17.71875 45.226563 C 17.1875 45.226563 16.667969 45.195313 16.171875 45.136719 C 15.761719 45.085938 15.378906 45.324219 15.238281 45.710938 C 15.101563 46.097656 15.25 46.523438 15.59375 46.746094 C 18.910156 48.875 22.746094 50 26.6875 50 C 34.433594 50 39.28125 46.34375 41.984375 43.277344 C 45.351563 39.457031 47.28125 34.402344 47.28125 29.40625 C 47.28125 29.25 47.28125 29.09375 47.277344 28.9375 C 48.558594 27.953125 49.667969 26.765625 50.574219 25.40625 C 50.792969 25.085938 50.769531 24.65625 50.515625 24.359375 C 50.265625 24.058594 49.84375 23.960938 49.488281 24.121094 C 49.261719 24.21875 49.035156 24.3125 48.800781 24.402344 C 49.203125 23.800781 49.523438 23.140625 49.746094 22.445313 C 49.855469 22.097656 49.742188 21.71875 49.457031 21.492188 C 49.171875 21.265625 48.777344 21.238281 48.464844 21.421875 C 47.320313 22.105469 46.085938 22.597656 44.792969 22.902344 C 43.351563 21.554688 41.433594 20.796875 39.453125 20.796875 Z M 39.453125 22.550781 C 41.121094 22.550781 42.730469 23.246094 43.871094 24.464844 C 44.078125 24.683594 44.382813 24.78125 44.683594 24.722656 C 45.398438 24.582031 46.097656 24.386719 46.78125 24.144531 C 46.386719 24.578125 45.925781 24.953125 45.414063 25.261719 C 45.058594 25.472656 44.902344 25.90625 45.035156 26.296875 C 45.167969 26.6875 45.558594 26.933594 45.96875 26.886719 C 46.390625 26.832031 46.808594 26.765625 47.222656 26.679688 C 46.796875 27.082031 46.347656 27.453125 45.871094 27.796875 C 45.632813 27.96875 45.496094 28.25 45.507813 28.546875 C 45.519531 28.832031 45.53125 29.117188 45.53125 29.40625 C 45.53125 41.199219 35.949219 48.246094 26.6875 48.246094 C 24.246094 48.246094 21.847656 47.773438 19.609375 46.863281 C 22.257813 46.53125 24.734375 45.5 26.863281 43.828125 C 27.15625 43.601563 27.273438 43.214844 27.15625 42.859375 C 27.039063 42.507813 26.710938 42.269531 26.34375 42.261719 C 24.222656 42.222656 22.320313 41.085938 21.261719 39.328125 C 21.921875 39.316406 22.574219 39.226563 23.210938 39.054688 C 23.605469 38.949219 23.871094 38.585938 23.859375 38.179688 C 23.84375 37.773438 23.550781 37.425781 23.152344 37.347656 C 20.792969 36.871094 18.972656 35.039063 18.453125 32.71875 C 19.125 32.929688 19.828125 33.046875 20.53125 33.066406 C 20.925781 33.097656 21.277344 32.832031 21.394531 32.460938 C 21.515625 32.089844 21.375 31.683594 21.046875 31.464844 C 19.363281 30.335938 18.355469 28.453125 18.355469 26.425781 C 18.355469 25.785156 18.457031 25.148438 18.652344 24.546875 C 22.289063 28.4375 27.316406 30.789063 32.65625 31.058594 C 32.941406 31.074219 33.195313 30.957031 33.375 30.746094 C 33.550781 30.535156 33.617188 30.253906 33.558594 29.984375 C 33.453125 29.535156 33.398438 29.070313 33.398438 28.605469 C 33.398438 25.265625 36.113281 22.550781 39.453125 22.550781 Z"/></svg>